<?xml version="1.0" encoding="UTF-8"?>
<svg id="Bio" xmlns="http://www.w3.org/2000/svg" viewBox="0 0 100 100">
  <defs>
    <style>
      .cls-1 {
        fill: #4b002c;
      }
    </style>
  </defs>
  <g id="Add">
    <path class="cls-1" d="M50,91.89c-23.1,0-41.89-18.79-41.89-41.89S26.9,8.11,50,8.11s41.89,18.79,41.89,41.89-18.79,41.89-41.89,41.89ZM50,13.51c-20.12,0-36.49,16.37-36.49,36.49s16.37,36.49,36.49,36.49,36.49-16.37,36.49-36.49S70.12,13.51,50,13.51Z"/>
    <polygon class="cls-1" points="71.53 45.95 54.05 45.95 54.05 28.47 45.95 28.47 45.95 45.95 28.47 45.95 28.47 54.05 45.95 54.05 45.95 71.53 54.05 71.53 54.05 54.05 71.53 54.05 71.53 45.95"/>
  </g>
</svg>