<?xml version="1.0" encoding="UTF-8"?>
<svg id="Bio" xmlns="http://www.w3.org/2000/svg" viewBox="0 0 100 100">
  <defs>
    <style>
      .cls-1 {
        fill: #4b002c;
      }
    </style>
  </defs>
  <path class="cls-1" d="M56.37,39.13h0c2.32,0,4.21,1.88,4.21,4.21,0,2.32-1.88,4.21-4.21,4.21s-4.21-1.88-4.21-4.21c0-2.32,1.88-4.21,4.21-4.21ZM39.9,39.13c2.32,0,4.21,1.88,4.21,4.21s-1.88,4.2-4.21,4.21h0c-2.32,0-4.21-1.88-4.21-4.21s1.88-4.21,4.21-4.21h0ZM72.89,39.07h0c2.36,0,4.27,1.91,4.27,4.27s-1.91,4.27-4.27,4.27-4.27-1.91-4.27-4.27,1.91-4.27,4.27-4.27h0ZM56.39,8.11h-.01c-19.45,0-35.22,15.78-35.22,35.23s15.77,35.23,35.23,35.23c7.76,0,14.94-2.51,20.76-6.76l13.05,2.92c.11.02.22.04.32.04.39,0,.78-.16,1.06-.45.19-.2.32-.44.38-.69v-.61s0-.06,0-.09l-3.76-14.4c2.2-4.6,3.43-9.75,3.43-15.19,0-19.46-15.77-35.23-35.23-35.23h0ZM20.75,29.99h0c-7.64,6.4-12.49,16-12.49,26.74,0,6,1.52,11.65,4.19,16.58l-4.36,16.73c-.13.5,0,1.03.37,1.39.26.27.6.42.97.45h0s0,0,0,0h0s.06,0,.09,0c.02,0,.04,0,.07,0h.03s0,0,0,0c.08,0,.15-.02.22-.03l17.64-3.95c4.71,2.37,10.03,3.7,15.67,3.7,10.88,0,20.59-4.98,26.99-12.78h0c-4.26,1.65-8.89,2.55-13.73,2.55-21.01,0-38.05-17.03-38.05-38.05,0-4.7.85-9.19,2.41-13.35h0Z"/>
</svg>