<?xml version="1.0" encoding="UTF-8"?>
<svg id="Icons_Template" data-name="Icons/Template" xmlns="http://www.w3.org/2000/svg" viewBox="0 0 100 100">
  <defs>
    <style>
      .cls-1 {
        fill: #4b002c;
      }
    </style>
  </defs>
  <path class="cls-1" d="M72.89,30.55c6.74,7.37,14.04,14.54,20.22,22.29l-.27,1.56-42.52,39.41h-1.28S6.89,55.18,6.89,55.18l.6-3.63L46.87,7.85c1.18-1.04,2.19-2.32,3.76-1.27,1.7,1.14,5.43,5.41,7.13,7.17,5.21,5.37,10.07,11.28,15.13,16.81ZM50.3,14.07l-1.52.65-17.71,30.68c-.22,1.23.23.78.8,1.06,5.68,2.85,11.82,5,17.5,7.88l18.31-8.35-17.39-31.92ZM66.02,30.59c-.47-.4-.62-1.36-1.15-1.63l-.92.92,8.83,15.05,7.9,2.63c.18-1.72-1.16-3.09-2.16-4.34-3.2-4.02-8.57-9.27-12.51-12.62ZM33.56,30.82c-1.24-.15-2.05,1.05-2.79,1.85-3.68,3.98-8.07,8.59-11.47,12.72-.57.7-1.51,1-1.24,2.17.59.55,7.38-2.11,8.34-3.13,1.28-1.38,5.33-8.95,6.31-11.05.39-.83,1.16-1.38.85-2.55ZM47.21,85.38v-26.35c-3.79-1.71-16.88-9.57-20.15-9.57-.72,0-13.33,4.51-13.32,5.23l33.47,30.7ZM51.55,59.03v25.42c0,1.87,2.68-.27,3.12-.61,7.11-5.44,17.11-15.53,23.87-22.01,1.2-1.15,7.11-6.72,7.12-7.76l-14.52-4.65-19.59,9.61Z"/>
</svg>