<?xml version="1.0" encoding="UTF-8"?>
<svg id="Icons_Template" data-name="Icons/Template" xmlns="http://www.w3.org/2000/svg" viewBox="0 0 100 100">
  <defs>
    <style>
      .cls-1 {
        fill: currentColor;
      }
    </style>
  </defs>
  <path class="cls-1" d="M36.31,6.69c2.59-.69,23.62-.61,26.8-.12,1.99.31,15.8,8.87,17.14,10.52,1.37,1.69,13.46,23.39,13.87,24.98.84,3.31.68,16.16-.52,19.27-1.01,2.64-12.06,22.2-13.64,23.9-.84.91-11.98,7.39-13.3,7.77-3.3.96-26.52,1.02-30.47.4-1.77-.28-15.01-7.04-16.08-8.29-1.29-1.5-13.91-23.19-14.28-24.58-.68-2.59-.68-15.96.2-18.28,1.03-2.69,13.34-24.03,15.03-25.8,1.03-1.08,14.15-9.49,15.24-9.78ZM70.72,16.41c-2.69-.59-5.75-4.12-8.26-4.59-2.82-.52-23.65-.33-25.8.48s-4.42,3.52-6.77,4.43c5.79.83,14.53,4.25,20.09,4.27,3.78.02,14.7-2.48,18.91-3.47.66-.15,1.99-.2,1.83-1.12ZM47.59,25.71l-23.5-4.59-12.15,21.17-.19,1.75,15.17,15.88,1.67.35,18.77-11.59.23-22.97ZM52.35,25.69l.27,22.98,18.14,11.54,1.92.02c1.97-2.86,14.91-15.25,15.18-17.19.54-3.76-9.29-16.48-10.63-20.96l-1.51-1.03-23.37,4.64ZM89.16,59.54c.61-2.37-.44-6.87,0-9.55-1.57,1.07-3,2.55-4.29,3.94-2.44,2.65-8.25,8.59-9.82,11.25-2.81,4.78-3.57,14.56-5.65,20.03,1.74-.46,5.79-2.44,6.89-3.64.86-.94,12.55-20.8,12.87-22.03ZM31.87,85.55c-2.57-5.86-3.55-15.34-6.68-20.64-2.6-4.41-10.81-10.11-14.39-14.25.28,2.7-.5,6.16.15,8.73.4,1.55,10.31,18.43,11.8,20.47,2.21,3.01,5.59,4.64,9.11,5.7ZM63.42,88.12c.52-6.48,5.55-15.46,5.87-21.52.05-.98.04-1.54-.84-2.15l-18.47-11.15-19.38,11.26,7.28,23.54,25.53.02Z"/>
</svg>