<?xml version="1.0" encoding="UTF-8"?>
<svg id="Icons_Template" data-name="Icons/Template" xmlns="http://www.w3.org/2000/svg" viewBox="0 0 100 100">
  <defs>
    <style>
      .cls-1 {
        fill: currentColor;
      }
    </style>
  </defs>
  <path class="cls-1" d="M49.57,6.2h1.61s37.2,23.26,37.2,23.26v43.53c-.54,1.11-18.56,10.94-21.33,12.45-2.62,1.43-14.67,8.41-16.36,8.38l-36.92-19.63c-1.57-.97-1.59-2.45-1.74-4.1-1.15-12.54.65-27.23.36-39.97,11.78-8.85,24.93-15.76,37.18-23.93ZM48.42,13.23l-20.78,12.98c3.69-1.29,17.83-1.9,20.16-3.54,1.36-.95.29-7.49.62-9.44ZM73.75,25.58l-20.78-12.35c.33,1.95-.74,8.49.62,9.44.75.53,15.79,3.06,18.07,3.37.7.1,2.24.72,2.09-.47ZM45.17,28.17l-26.6,4.57,8.43,25.95,18.17-30.52ZM82.85,32.71l-26.63-4.55,17.55,29.87,1.35-.9,7.73-24.42ZM70.51,61.94l-19.49-32.47-19.48,32.47h38.97ZM17.25,45.7v21.43l6.55-3.64-6.55-17.79ZM84.14,67.14v-20.78c-.94-.15-.85,1.09-1.13,1.79-.83,2.1-4.87,13.47-4.74,14.78.13,1.39,5.55,4.6,5.87,4.22ZM69.21,66.49h-36.37l1.31,2.91,15.95,17.92c1.41.14,2.04-.81,2.89-1.65,3.89-3.82,8.67-9.45,12.3-13.68.52-.6,4.4-5.1,3.91-5.5ZM36.73,80.77c.78-.81-2.02-4.12-2.61-4.85-.84-1.03-6.66-7.62-7.15-7.84-1.83-.83-8.53,3.15-5.41,4.8l15.17,7.88ZM80.89,72.32c.82-1.17-4.38-4.64-5.42-4.44-1.61.31-9.35,10.58-11.46,12.24,2.25.02,16.35-7.03,16.88-7.8Z"/>
</svg>