<?xml version="1.0" encoding="UTF-8"?>
<svg id="Icons_Template" data-name="Icons/Template" xmlns="http://www.w3.org/2000/svg" viewBox="0 0 100 100">
  <defs>
    <style>
      .cls-1 {
        fill: #4b002c;
      }
    </style>
  </defs>
  <path class="cls-1" d="M48.73,6.29c1.27-.39,2.17.34,3.23.8,11.25,4.89,23.16,15.43,34.61,20.73l1.39,1.65c.85,14.01.58,28.32.14,42.4-12.18,8.19-25.32,15.05-38.29,21.95l-1.97-.52-36.34-20.81V29.32c11.81-8.52,24.96-15.15,37.24-23.02ZM81.11,30.52l-31.37-18.85-31.25,18.55,31.32,17.99,31.3-17.69ZM47.67,87.08v-33.75l-11.14-7.1-20.48-11.45v35.27l31.62,17.03ZM83.55,34.78c-.96-.23-1.43.26-2.16.58-7.98,3.55-20.05,11.71-27.84,16.58-.49.3-1.06.43-1.62.47v34.66l31.62-17.94v-34.36Z"/>
</svg>