<?xml version="1.0" encoding="UTF-8"?>
<svg id="Icons_Template" data-name="Icons/Template" xmlns="http://www.w3.org/2000/svg" viewBox="0 0 100 100">
  <defs>
    <style>
      .cls-1 {
        fill: #4b002c;
      }
    </style>
  </defs>
  <path class="cls-1" d="M75.14,69.83c-7.88,7.78-15.74,15.6-23.54,23.48l-2.39.5L5.88,50.11l1.76-2.62L48.42,6.69l2.39-.5,43.31,42.71-.48,3.02c-5.89,6.25-12.4,11.92-18.5,17.93ZM47.52,65.88V14.81L13.26,49.36l34.25,16.52ZM52.5,14.81v51.07l34.88-16.51L52.5,14.81ZM48.14,85.81v-14.01l-27.4-12.76,27.4,26.77ZM52.5,71.8v13.39l25.54-25.22c-.4-.84-1.71-.07-2.32.17-2.65,1.05-22.84,10.41-23.22,11.65Z"/>
</svg>