<?xml version="1.0" encoding="UTF-8"?><svg id="uuid-f2de10e1-0b19-4fe6-9c56-c331a257d807" xmlns="http://www.w3.org/2000/svg" viewBox="0 0 83.78 47.5"><path id="uuid-04f7308b-48c6-40db-a45e-f870a884a74f" d="M74.28,0c-5.25,0-9.5,4.25-9.5,9.5,0,1.8.53,3.46,1.4,4.9l-9.2,10.17c-1.3-.67-2.75-1.08-4.31-1.08-2.38,0-4.53.91-6.2,2.36l-8.58-5.71c.05-.38.11-.75.11-1.14,0-5.25-4.25-9.5-9.5-9.5s-9.5,4.25-9.5,9.5c0,1.74.5,3.35,1.32,4.75l-6.07,6.07c-1.4-.82-3.01-1.32-4.75-1.32-5.25,0-9.5,4.25-9.5,9.5s4.25,9.5,9.5,9.5,9.5-4.25,9.5-9.5c0-1.52-.39-2.93-1.02-4.21l6.32-6.32c1.27.63,2.69,1.02,4.21,1.02,2.87,0,5.41-1.3,7.15-3.31l7.9,5.26c-.23.81-.39,1.65-.39,2.54,0,5.25,4.25,9.5,9.5,9.5s9.5-4.25,9.5-9.5c0-1.7-.48-3.27-1.26-4.64l9.31-10.29c1.24.59,2.6.95,4.06.95,5.25,0,9.5-4.25,9.5-9.5S79.53,0,74.28,0Z" style="fill:#4b002c;"/></svg>