<?xml version="1.0" encoding="UTF-8"?><svg id="uuid-d42c2bef-16c5-4ebb-b28d-b48ac09c7d96" xmlns="http://www.w3.org/2000/svg" viewBox="0 0 88.23 87.63"><path id="uuid-fba55b8c-be83-4559-8f7e-fdaa692a0ae3" d="M69.26,63.65c-7.88,7.78-15.74,15.6-23.54,23.48l-2.39.5L0,43.93l1.76-2.62L42.54.5l2.39-.5,43.31,42.71-.48,3.02c-5.89,6.25-12.4,11.92-18.5,17.93ZM41.64,59.7V8.63L7.38,43.18l34.25,16.52ZM46.62,8.63v51.07l34.88-16.51L46.62,8.63ZM42.26,79.63v-14.01l-27.4-12.76,27.4,26.77ZM46.62,65.61v13.39l25.54-25.22c-.4-.84-1.71-.07-2.32.17-2.65,1.05-22.84,10.41-23.22,11.65Z" style="fill:#4b002c;"/></svg>