<?xml version="1.0" encoding="UTF-8"?><svg id="uuid-fde41882-dec9-48f3-84ae-3c51cc45dab4" xmlns="http://www.w3.org/2000/svg" viewBox="0 0 83.78 83.78"><g id="uuid-8d551735-3cb7-4aaf-9bbd-56e1fb199c5d"><path d="M41.89,0C18.76,0,0,18.76,0,41.89s18.76,41.89,41.89,41.89,41.89-18.76,41.89-41.89S65.03,0,41.89,0ZM41.89,76.96c-19.37,0-35.07-15.7-35.07-35.07S22.52,6.82,41.89,6.82s35.07,15.7,35.07,35.07-15.7,35.07-35.07,35.07Z" style="fill:#4b002c;"/><path d="M19.14,28.67c5.21,3.04,22.75,33.41,22.8,39.49-.05-6.08,17.48-36.44,22.8-39.49-5.31,3.04-40.38,3.04-45.59,0ZM41.89,62.08l-17.53-30.37h35.07l-17.53,30.37Z" style="fill:#4b002c;"/><path d="M64.74,54.71c1.34-6.15-16.94-38.33-22.8-39.49-5.96,1.14-24.31,33.38-22.8,39.49,4.79,3.46,41.24,3.86,45.59,0ZM43.18,23.37l14.87,25.76c.65,1.13-.16,2.55-1.47,2.55h-29.81c-1.03,0-1.67-1.11-1.16-2l15.18-26.3c.53-.92,1.85-.92,2.38,0Z" style="fill:#4b002c;"/><path d="M61.72,23.37c-2.93,1.67-3.95,5.4-2.28,8.32,1.67,2.93,5.4,3.95,8.32,2.28,2.93-1.67,3.95-5.4,2.28-8.32-1.67-2.93-5.4-3.95-8.32-2.28ZM67.22,33.04c-3.02,1.72-5.12,1.14-6.84-1.88-1.82-3.19-1.14-5.12,1.88-6.84,3.02-1.72,5.12-1.14,6.84,1.88,1.72,3.02,1.14,5.12-1.88,6.84Z" style="fill:#4b002c;"/><path d="M13.85,25.66c-1.67,2.93-.65,6.66,2.28,8.32,2.93,1.67,6.66.65,8.32-2.28,1.67-2.93.65-6.66-2.28-8.32-2.93-1.67-6.66-.65-8.32,2.28ZM14.8,26.19c1.72-3.02,3.83-3.6,6.84-1.88s3.69,3.65,1.88,6.84c-1.72,3.02-3.82,3.6-6.84,1.88-3.02-1.72-3.6-3.82-1.88-6.84Z" style="fill:#4b002c;"/><path d="M35.76,68.32c-.02,3.37,2.7,6.12,6.07,6.14s6.12-2.7,6.14-6.07c.02-3.37-2.7-6.12-6.07-6.14-3.37-.02-6.12,2.7-6.14,6.07ZM46.88,68.38c-.02,3.48-1.57,5.01-5.05,4.99-3.67-.02-5.01-1.57-4.99-5.05s1.57-5.01,5.05-4.99,5.01,1.57,4.99,5.05Z" style="fill:#4b002c;"/><circle cx="42.1" cy="14.84" r="6.1" style="fill:#4b002c;"/><circle cx="64.74" cy="54.51" r="6.1" style="fill:#4b002c;"/><circle cx="19.16" cy="54.51" r="6.1" style="fill:#4b002c;"/></g></svg>