<?xml version="1.0" encoding="UTF-8"?><svg id="uuid-c107d3d2-e7e8-41eb-82c7-a5c33d1c9c7f" xmlns="http://www.w3.org/2000/svg" viewBox="0 0 77.02 87.63"><path id="uuid-b49c3aaf-123c-482c-8d94-1770d63de48c" d="M37.24.11c1.27-.39,2.17.34,3.23.8,11.25,4.89,23.16,15.43,34.61,20.73l1.39,1.65c.85,14.01.58,28.32.14,42.4-12.18,8.19-25.32,15.05-38.29,21.95l-1.97-.52L0,66.3V23.13C11.81,14.61,24.96,7.98,37.24.11ZM69.62,24.33L38.25,5.48,7,24.04l31.32,17.99,31.3-17.69ZM36.18,80.9v-33.75l-11.14-7.1L4.56,28.6v35.27l31.62,17.03ZM72.06,28.6c-.96-.23-1.43.26-2.16.58-7.98,3.55-20.05,11.71-27.84,16.58-.49.3-1.06.43-1.62.47v34.66l31.62-17.94V28.6Z" style="fill:#4b002c;"/></svg>