<?xml version="1.0" encoding="UTF-8"?><svg id="uuid-d2088bc8-64e1-4fb2-b2a4-7990a95cc59a" xmlns="http://www.w3.org/2000/svg" viewBox="0 0 89.01 71.7"><g id="uuid-40ce72d5-8367-49e3-87b3-9772986dfa15"><path d="M82.4,13.21H6.61c-3.65,0-6.61-2.96-6.61-6.61S2.95,0,6.61,0h75.8c3.65,0,6.61,2.96,6.61,6.61s-2.95,6.61-6.61,6.61Z" style="fill:currentColor;"/><path d="M82.4,42.46H6.61c-3.65,0-6.61-2.96-6.61-6.61s2.95-6.61,6.61-6.61h75.8c3.65,0,6.61,2.96,6.61,6.61s-2.95,6.61-6.61,6.61Z" style="fill:currentColor;"/><path d="M82.4,71.7H6.61c-3.65,0-6.61-2.96-6.61-6.61s2.95-6.61,6.61-6.61h75.8c3.65,0,6.61,2.96,6.61,6.61s-2.95,6.61-6.61,6.61Z" style="fill:currentColor;"/></g></svg>