<?xml version="1.0" encoding="UTF-8"?><svg id="uuid-59d90024-3055-4e79-988c-e559124a4848" xmlns="http://www.w3.org/2000/svg" xmlns:xlink="http://www.w3.org/1999/xlink" viewBox="0 0 81.71 81.69"><defs><clipPath id="uuid-818cc37c-90ab-465e-a48f-3ed9a6a7ce05"><path d="M11.95,11.95c-15.93,15.93-15.93,41.76,0,57.69L69.63,11.95c-15.93-15.93-41.76-15.93-57.69,0Z" style="fill:none;"/></clipPath><clipPath id="uuid-e0fcc5d1-9eb3-4163-854b-68faac5c9016"><path d="M69.76,69.75c15.93-15.93,15.93-41.76,0-57.69L12.07,69.75c15.93,15.93,41.76,15.93,57.69,0Z" style="fill:none;"/></clipPath></defs><g id="uuid-092d6df0-7db6-46d6-89a0-2259893fd608"><g style="clip-path:url(#uuid-818cc37c-90ab-465e-a48f-3ed9a6a7ce05);"><path d="M26.94,79.06c-6.08-2.09-11.37-5.42-15.82-10.01C4.78,62.52.96,54.72-.14,45.68c-1.16-9.5.75-18.39,5.83-26.52C10.77,11.04,17.91,5.44,26.94,2.21v76.85Z" style="fill:#224287;"/><path d="M55.32,78.35V2.95C50.64,1.06,45.53.14,40.17.14c-4.63,0-9.08.63-13.23,2.07v76.85c4.15,1.43,8.6,2.01,13.23,2.01,5.36,0,10.47-.83,15.15-2.72Z" style="fill:#fff;"/><path d="M55.32,78.35V2.95c5.58,2.25,10.44,5.55,14.52,9.95,6.11,6.58,9.74,14.35,10.69,23.28,1.06,9.96-1.2,19.14-6.86,27.42-4.61,6.75-10.77,11.63-18.36,14.75Z" style="fill:#e9302b;"/></g><g style="clip-path:url(#uuid-e0fcc5d1-9eb3-4163-854b-68faac5c9016);"><path d="M80.58,33.38c.72.56.54,1.41.64,2.14.27,2.04.45,4.09.34,6.15-.1,1.79-.09,3.59-.42,5.36-.07.36-.08.73-.53.86-.15.04-.13.2-.14.33-.07,0-.15,0-.22,0-.12-.38-.43-.21-.65-.21-8.79,0-17.59,0-26.38,0-1.25,0-2.51,0-3.76,0-.2,0-.47-.11-.54.22-.17,0-.35,0-.52.01-.48.12-.14.34-.07.54,0,.59,0,1.18,0,1.77-.25.08-.18.29-.18.47,0,8.99,0,17.99,0,26.98,0,.17-.07.38.18.47,0,.11,0,.22,0,.33-.14.26-.12.56-.06.81.14.55-.37.83-.46,1.27-.01.07-.22.12-.34.13-2.79.33-5.58.55-8.39.45-1.74-.06-3.45-.32-5.17-.52-.19-.02-.2-.33-.44-.25,0-.24-.02-.48-.02-.72,0-10.33,0-20.66.01-30.99,0-.56-.11-.73-.71-.73-10.39.02-20.77.02-31.16.01-.2,0-.4-.01-.61-.02-.16-.2-.18-.43-.22-.68-.28-1.47-.4-2.96-.51-4.44-.11-1.43-.14-2.87.05-4.3.09-.66-.01-1.32.11-1.98.2-1.07.11-2.19.57-3.22.03-.06,0-.15,0-.22.26,0,.52-.02.77-.02,4.43,0,8.86,0,13.28,0,5.94,0,11.88,0,17.82,0,.21,0,.5.16.61-.19.23-.13.4-.28.17-.56-.17-.21-.14-.47-.08-.69.11-.44.09-.88.09-1.32,0-9.18,0-18.36,0-27.53,0-.42-.05-.84.09-1.26.07-.2.04-.42-.27-.42,0-.18-.02-.37-.03-.55,3.33-.73,6.71-.74,10.09-.64,1.31.04,2.62.28,3.92.48.3.05.63-.04.92.13-.01.12-.02.25-.03.37-.12.44-.12.88,0,1.32,0,.07,0,.15,0,.22-.33.16-.17.46-.17.69,0,9.56,0,19.13-.01,28.69,0,.22.18.59-.32.57-.12,0-.1.25-.03.23.36-.09.31.35.54.39.27.16.57.08.86.08,10,0,20.01,0,30.01,0,.46,0,.92.01,1.38.02ZM1.12,47.73s-.05-.02-.07-.02c0,.01,0,.03.01.04.01,0,.03,0,.06-.02Z" style="fill:#fdfefe;"/><path d="M.97,48.23c.2,0,.4.02.61.02,10.39,0,20.77,0,31.16-.01.59,0,.71.17.71.73-.02,10.33-.01,20.66-.01,30.99,0,.24.02.48.02.72-.13.24-.33.09-.49.06-8.15-1.66-15.18-5.42-21.03-11.33-5.52-5.57-9.09-12.21-10.81-19.85-.1-.43-.28-.87-.16-1.33ZM19.11,61.08c.01.12.01.24.12.32.05.15.09.29.14.44.09.31.19.63.28.94v.03s.01.02.01.02c.06.48.12.95.17,1.43,0,.11,0,.23,0,.34-.03.03-.02.07,0,.1.02.37-.24.31-.47.32-.28.01-.26-.16-.28-.35-.02-.25-.07-.5-.1-.75-.15-1.18-.48-2.27-1.51-3.01h0c-.09-.11-.18-.24-.36-.18-1.24-.62-2.17-.07-2.69.84-.59,1.04-.3,2.3.65,2.93.06.03.11.06.17.09.03.02.06.04.09.06.21.15.45.22.73.26-.03-.26-.05-.51-.08-.76.21-.72.49-.95,1.1-.9.62.05.87.5,1.05,1,.24.65.14.82-.54.78-.48-.03-.62.15-.55.59.02.11.01.22,0,.33-.04.31.08.43.4.41.46-.03.92-.02,1.38,0,.24.01.59-.16.7.11.1.26-.08.57-.25.81-.1.13-.22.25-.34.36-.47.39-.51.65.01.89.52.23.74.57.86,1.07.02.1.1.2.16.29.3.48.41.5.68-.02.29-.57.47-1.17,1.16-1.45.31-.13.45-.46-.04-.72-.38-.2-.59-.59-.7-1.02-.06-.25,0-.33.26-.32.61.01,1.22,0,1.83,0,.13,0,.35.08.37-.12.04-.36.09-.76-.01-1.09-.08-.26-.46-.06-.7-.12-.16-.04-.39.1-.47-.16-.15-.55.58-1.55,1.17-1.61.82-.08,1.22.48,1.06,1.49-.03.05-.15.08-.07.15.03.03.13-.02.2-.04.79-.17,1.38-.58,1.65-1.37.37-1.09-.1-2.31-1.09-2.85-.86-.47-1.88-.2-2.63.73-.7.86-1.01,1.88-1.05,2.96-.02.58-.2.79-.76.68,0-.04-.01-.07-.05-.09.01-.04,0-.07,0-.11,0-.11,0-.22,0-.33.01-.24.03-.47.04-.71.08-.13.08-.26.06-.4,0-.07.02-.14.03-.22.1-.14.11-.29.09-.45.01-.05.02-.1.03-.15.02-.06.04-.12.07-.18.02-.07.04-.14.06-.21.02-.08.04-.16.07-.23.05-.13.09-.27.14-.4.3-.7.57-1.4.77-2.14.1-.11.14-.24.12-.38.28-.73.22-1.46-.01-2.19.01-.04,0-.07-.02-.09-.14-.75-.48-1.41-.93-2.01-.02-.03-.05-.06-.07-.09-.03-.04-.06-.07-.08-.11h0c-.69-1.16-.78-1.16-1.57-.1-.07.1-.13.21-.2.32h0c-.12.08-.24.16-.21.33-.02.03-.04.07-.06.1-.48.79-.8,1.62-.82,2.56-.05.22-.04.45,0,.67-.02.14-.03.28.07.4.01.05.02.1.03.16.06.44.23.84.42,1.23h0c.06.31.18.61.33.89h0Z" style="fill:#174799;"/><path d="M80.58,33.38c-.46,0-.92-.02-1.38-.02-10,0-20.01,0-30.01,0-.29,0-.59.08-.86-.08,0-.13.02-.26.02-.39,0-9.89,0-19.79,0-29.68,0-.17-.02-.33-.02-.5,0-.07,0-.15,0-.22,0-.44,0-.88,0-1.32.01-.12.02-.25.03-.37,4.19.76,8.16,2.13,11.88,4.2,10.45,5.83,17.2,14.56,20.21,26.15.16.61.25,1.23.4,1.83.07.26.01.38-.26.4ZM61.19,13.51s-.01-.04-.04-.05c-.21-.17-.33-.77-.69-.36-.55.63-1.11,1.28-1.36,2.12-.03.01-.04.04-.03.07-.44.93-.66,1.89-.39,2.92,0,.09-.01.17.07.23,0,.13,0,.25.11.35.3.87.6,1.73.89,2.6.29.86.41,1.75.44,2.66,0,.25-.06.37-.34.36-.25,0-.44-.01-.42-.34.01-.16,0-.33-.03-.5-.18-1.26-.49-2.47-1.58-3.29-.92-.7-1.88-.64-2.68.19-.67.7-.82,1.56-.51,2.46.28.81.93,1.2,1.78,1.37-.01-.12-.02-.17-.03-.23-.14-.69.08-1.21.58-1.39.57-.2,1.12.07,1.43.72.08.16.11.35.17.52.13.36.03.49-.37.49-.8,0-.8.01-.79.83,0,.09.02.18.02.27-.05.22.1.23.25.23.69,0,1.37-.02,2.06-.02.3.07.12.29.14.45-.14.34-.31.66-.62.89-.48.37-.46.59.06.93.19.12.39.19.61.21,0,.04,0,.07.03.09.01.08.03.16.04.24.02.07.05.14.07.2-.02.18.08.31.17.45.11.18.24.48.37.48.23,0,.34-.27.43-.49.04-.12.09-.23.13-.35.16-.1.12-.27.14-.42.03-.08.05-.15.08-.23.5-.01.86-.29,1.02-.72.09-.25-.29-.29-.45-.43-.23-.26-.43-.54-.53-.89-.08-.28-.03-.41.3-.4.46.02.92,0,1.38,0,.82,0,.8,0,.81-.83,0-.37-.08-.52-.48-.51-.81.02-.9-.15-.57-.91.08-.18.19-.36.32-.51.29-.35.68-.41,1.11-.3.41.11.57.43.65.81.06.27-.03.53-.05.8.38-.02.68-.18.96-.36.76-.49,1.05-1.21.96-2.08-.1-.92-.61-1.57-1.46-1.92-.83-.34-1.51,0-2.11.55-.29.26-.51.58-.7.92-.46.82-.59,1.73-.67,2.65-.02.19,0,.35-.29.36-.32.01-.44-.06-.44-.42-.02-1.69.58-3.22,1.2-4.74.74-1.82.38-3.45-.64-5.03-.13-.28-.33-.5-.54-.72Z" style="fill:#174799;"/><path d="M48.39,48.24c.17,0,.35,0,.52-.01.15,0,.29.03.44.03,10.13,0,20.27,0,30.4,0,.16,0,.33-.02.49-.03.07,0,.15,0,.22,0,.48-.03.4.24.34.56-1.13,5.61-3.31,10.78-6.64,15.43-6.27,8.76-14.69,14.25-25.23,16.51-.51.11-.64,0-.6-.51.04-.47,0-.96-.02-1.44,0-.11,0-.22,0-.33,0-.15.02-.29.02-.44,0-9.01,0-18.02,0-27.03,0-.15-.02-.29-.02-.44,0-.59,0-1.18,0-1.77.02-.18.05-.36.07-.54ZM64.91,64.96c.19-.06.34-.09.47-.14.98-.38,1.49-1.11,1.47-2.11-.02-.98-.64-1.87-1.51-2.18-.78-.28-1.66.04-2.34.85-.16.2-.3.42-.43.64-.45.81-.63,1.69-.66,2.6-.01.35-.14.43-.46.42-.4,0-.26-.28-.26-.46-.02-1.59.5-3.05,1.11-4.47.84-1.96.49-3.74-.67-5.43-.91-1.33-.93-1.32-1.88,0-.04.06-.1.11-.14.17-.97,1.54-1.4,3.15-.65,4.92.16.39.29.79.44,1.19.42,1.14.77,2.31.79,3.54,0,.23.12.51-.33.54-.46.02-.4-.26-.42-.53-.08-1.14-.34-2.23-1.08-3.13-.53-.63-1.17-1.09-2.06-.93-1.06.18-1.84,1.23-1.8,2.38.04,1.11.77,1.89,1.93,2.06-.03-.18-.08-.36-.07-.54.01-.45.13-.86.6-1.02.48-.17.91-.06,1.24.35.18.23.28.51.37.8.14.44,0,.63-.46.55-.59-.1-.79.15-.7.71,0,.05,0,.11,0,.17-.05.35.06.5.45.47.44-.04.89-.03,1.33,0,.24.01.59-.15.7.11.1.26-.08.57-.25.81-.1.13-.22.25-.35.35-.47.38-.49.67.06.92.47.22.7.52.79.99.02.1.1.2.16.29.34.55.46.57.74,0,.28-.57.48-1.12,1.13-1.41.36-.16.42-.5-.06-.74-.36-.18-.53-.55-.65-.93-.09-.28-.05-.41.28-.4.46.02.92,0,1.38,0,.81,0,.78,0,.82-.83.02-.42-.1-.54-.52-.53-.78.02-.84-.09-.56-.84.07-.17.16-.34.27-.48.3-.4.72-.52,1.18-.39.47.14.65.51.65.98,0,.2-.04.39-.06.67Z" style="fill:#174799;"/><path d="M33.45,33.16c-.11.35-.4.19-.61.19-5.94,0-11.88,0-17.82,0-4.43,0-8.86,0-13.28,0-.26,0-.52.01-.77.02-.15-.13-.05-.27-.02-.41,1.02-5.3,3.01-10.21,6.03-14.66C13.29,8.98,22,3.16,33.05.85c.12-.03.25-.02.38-.02,0,.18.02.37.03.55,0,.16-.03.33-.03.49,0,10.28,0,20.56,0,30.85,0,.15.02.29.03.44ZM21.67,14.78c-.26-.66-.74-1.17-1.18-1.7-.11-.14-.2-.17-.34,0-.99,1.14-1.79,2.36-1.89,3.93,0,.18,0,.37-.01.55-.05.47.1.91.25,1.34.58,1.64,1.3,3.24,1.31,5.02,0,.21.12.48-.3.5-.39.02-.4-.18-.42-.46-.07-.98-.27-1.93-.79-2.79-.59-.96-1.56-1.5-2.41-1.32-.92.2-1.66,1.08-1.73,2.06-.08,1.06.42,1.91,1.34,2.28.34.14.65.3.54-.36-.1-.58.19-1.01.65-1.14.49-.15.97.05,1.27.54.09.16.16.33.22.5.2.64.16.72-.5.67-.55-.04-.68.18-.61.65.02.11.01.22,0,.33-.03.3.1.39.38.38.46-.02.92-.02,1.38,0,.24.01.6-.14.71.1.12.28-.07.61-.27.86-.12.15-.26.33-.44.4-.43.17-.4.46-.09.61.74.37,1.02,1.05,1.35,1.71.05.1.15.18.25.3.14-.18.27-.29.34-.44.28-.59.47-1.21,1.18-1.5.26-.1.47-.42-.03-.67-.34-.17-.58-.5-.69-.9-.09-.32-.09-.52.36-.48.53.04,1.07-.02,1.6.02.39.02.54-.1.49-.49-.02-.14-.02-.3,0-.44.05-.36-.11-.43-.44-.43-.89,0-.94-.1-.58-.92.09-.2.19-.4.36-.55.32-.28.68-.36,1.08-.24.39.12.53.42.62.78.07.28-.04.54-.05.81,1.13-.17,1.85-.92,1.93-1.97.08-1.11-.6-2.14-1.6-2.44-.86-.25-1.82.21-2.47,1.18-.6.89-.84,1.9-.87,2.96,0,.25-.03.41-.36.41-.33,0-.42-.13-.38-.43.03-.22,0-.44.02-.65.08-1.13.51-2.17.83-3.24.15-.39.31-.78.46-1.18.34-.89.41-1.79.12-2.7-.04-.41-.19-.78-.4-1.12-.03-.12-.04-.24-.15-.32Z" style="fill:#174799;"/><path d="M33.45,33.16c0-.15-.03-.29-.03-.44,0-10.28,0-20.56,0-30.85,0-.16.02-.33.03-.49.31,0,.33.21.27.42-.14.42-.09.84-.09,1.26,0,9.18,0,18.36,0,27.53,0,.44.03.88-.09,1.32-.05.22-.09.48.08.69.23.28.06.43-.17.56Z" style="fill:#edf6f3;"/><path d="M80.25,48.22c-.16.01-.33.03-.49.03-10.13,0-20.27,0-30.4,0-.15,0-.29-.02-.44-.03.07-.33.34-.22.54-.22,1.25,0,2.51,0,3.76,0,8.79,0,17.59,0,26.38,0,.22,0,.54-.16.65.21Z" style="fill:#edf6f3;"/><path d="M48.32,2.71c0,.17.02.33.02.5,0,9.89,0,19.79,0,29.68,0,.13-.01.26-.02.39-.24-.04-.18-.48-.54-.39-.07.02-.09-.24.03-.23.5.02.32-.35.32-.57,0-9.56,0-19.13.01-28.69,0-.23-.15-.53.17-.69Z" style="fill:#edf6f3;"/><path d="M48.32,50.54c0,.15.02.29.02.44,0,9.01,0,18.02,0,27.03,0,.15-.02.29-.02.44-.25-.08-.18-.29-.18-.47,0-8.99,0-17.99,0-26.98,0-.17-.07-.38.18-.47Z" style="fill:#edf6f3;"/><path d="M48.32,1.17c0,.44,0,.88,0,1.32-.12-.44-.12-.88,0-1.32Z" style="fill:#edf6f3;"/><path d="M48.39,48.24c-.02.18-.05.36-.07.54-.07-.19-.41-.42.07-.54Z" style="fill:#edf6f3;"/><path d="M1.12,47.73s-.04.01-.06.02c0-.01,0-.03-.01-.04.02,0,.04.01.07.02Z" style="fill:#edf6f3;"/><path d="M20.82,63.79c-.01.24-.03.47-.04.71-.07,0-.15,0-.22,0,0-.07-.02-.14-.03-.21-.02.01-.05.02-.07.03l.09.18c0,.16,0,.31.21.33.02.03.02.07,0,.11-.06.03-.16.09-.16.09.06.13.13,0,.2,0,.56.11.74-.11.76-.68.04-1.08.35-2.11,1.05-2.96.76-.92,1.78-1.2,2.63-.73.99.54,1.46,1.76,1.09,2.85-.27.79-.87,1.2-1.65,1.37-.04-.04-.08-.08-.13-.12.16-1.01-.24-1.57-1.06-1.49-.59.05-1.32,1.06-1.17,1.61.07.26.31.12.47.16.24.05.62-.14.7.12.11.33.05.73.01,1.09-.02.2-.24.12-.37.12-.61,0-1.22.01-1.83,0-.26,0-.32.07-.26.32.1.44.31.82.7,1.02.49.26.35.59.04.72-.69.28-.87.88-1.16,1.45-.27.52-.38.5-.68.02-.06-.09-.13-.19-.16-.29-.12-.5-.34-.84-.86-1.07-.53-.23-.48-.5-.01-.89.13-.1.25-.22.34-.36.18-.24.36-.55.25-.81-.11-.27-.46-.1-.7-.11-.46-.03-.92-.03-1.38,0-.32.02-.44-.1-.4-.41.01-.11.02-.22,0-.33-.07-.44.07-.62.55-.59.68.04.78-.13.54-.78-.18-.5-.43-.95-1.05-1-.61-.05-.89.18-1.1.9.03.49-.47.29-.66.5-.03-.02-.06-.04-.09-.06-.06-.03-.11-.06-.17-.09-.95-.63-1.24-1.9-.65-2.93.52-.91,1.45-1.46,2.69-.84.03.23.19.22.36.19,0,0,0,0,0,0-.02.12.04.21.09.31.27.52.71.94.89,1.53.13.41.15.88.53,1.18.03.25.08.5.1.75.02.18,0,.36.28.35.23-.01.49.04.47-.32,0-.01.03-.02.02-.03,0-.02-.02-.05-.03-.07,0-.11,0-.23,0-.34.29-.37.16-.79.17-1.2,0-.23-.18-.23-.34-.23l-.02-.02s.01-.03.01-.03c.25-.42.16-.73-.28-.94-.05-.15-.09-.29-.14-.44.19-.19.13-.3-.12-.32,0,0,0,0,0,0-.01-.33.16-.73-.33-.89,0,0,0,0,0,0-.14-.41.35-1.04-.42-1.23-.01-.05-.02-.1-.03-.16.02-.14.05-.28-.07-.39-.05-.22-.05-.44,0-.67.23-.19.34-.39.38-.71.06-.52.13-1.08.57-1.48.16-.15.16-.34-.14-.36l.06-.1c.14-.06.22-.17.21-.33h0c.22.22.5.07.53-.08.12-.59.51-.32.79-.28.14.02.28.16.45.14h0s.06.07.08.11c.02.03.05.06.07.09-.09.05-.18.13-.13.21.31.6.64,1.19.96,1.78.01.02.07.02.1.02.03.03.04.06.02.09.01.73-.15,1.46.01,2.19.02.15-.02.28-.12.38-.32,0-.4.25-.44.48-.05.31-.13.71-.28.86-.31.32-.17.52-.05.79-.05.13-.09.27-.14.4-.17.04-.27.09-.07.23-.02.07-.04.14-.06.21-.02.06-.04.12-.07.18-.01.05-.02.1-.03.15-.31.09-.26.26-.09.45,0,.07-.02.14-.03.22-.14,0-.2.09-.21.22-.1.1-.18.2,0,.36v-.35c.05.06.1.12.15.18Z" style="fill:#fdfefe;"/><path d="M18.99,63.94c-.38-.3-.4-.77-.53-1.18-.18-.59-.62-1-.89-1.53-.05-.1-.11-.19-.09-.31,1.03.74,1.36,1.83,1.51,3.01Z" style="fill:#edf6f3;"/><path d="M21.12,54.53c-.17.02-.31-.12-.45-.14-.28-.05-.67-.31-.79.28-.03.16-.31.31-.53.08.07-.11.12-.22.2-.32.79-1.07.88-1.06,1.57.1Z" style="fill:#edf6f3;"/><path d="M19.07,55.18c.3.02.3.21.14.36-.44.41-.51.96-.57,1.48-.04.33-.16.53-.38.71.02-.93.34-1.77.82-2.56Z" style="fill:#edf6f3;"/><path d="M22.21,56.75s-.09,0-.1-.02c-.33-.59-.65-1.18-.96-1.78-.04-.08.05-.17.13-.21.45.61.79,1.26.93,2.01Z" style="fill:#edf6f3;"/><path d="M21.36,61.55c-.12-.27-.26-.48.05-.79.15-.15.24-.55.28-.86.03-.23.12-.48.44-.48-.2.73-.47,1.44-.77,2.14Z" style="fill:#edf6f3;"/><path d="M22.25,59.03c-.16-.73,0-1.46-.01-2.19.23.73.29,1.46.01,2.19Z" style="fill:#edf6f3;"/><path d="M19.66,62.84c.17,0,.35,0,.34.23-.01.4.11.83-.17,1.2-.06-.48-.12-.95-.17-1.43Z" style="fill:#edf6f3;"/><path d="M18.36,58.96c.77.19.28.82.42,1.23-.19-.39-.37-.79-.42-1.23Z" style="fill:#edf6f3;"/><path d="M15.34,64.67c.19-.21.68-.01.66-.5.02.25.05.5.08.76-.28-.04-.52-.11-.73-.26Z" style="fill:#edf6f3;"/><path d="M19.37,61.84c.44.21.53.53.28.94-.09-.31-.19-.63-.28-.94Z" style="fill:#edf6f3;"/><path d="M18.78,60.19c.48.16.32.56.33.89-.15-.28-.27-.58-.33-.89Z" style="fill:#edf6f3;"/><path d="M20.91,63.17c-.17-.19-.21-.36.09-.45.02.16,0,.31-.09.45Z" style="fill:#edf6f3;"/><path d="M19.11,61.08c.26.02.31.13.12.32-.11-.08-.11-.2-.12-.32Z" style="fill:#edf6f3;"/><path d="M20.57,64.5c.07,0,.15,0,.22,0,0,.11,0,.22,0,.33-.21-.02-.21-.18-.21-.33h0Z" style="fill:#edf6f3;"/><path d="M17.49,60.93c-.17.03-.32.04-.36-.19.18-.05.27.07.36.19Z" style="fill:#edf6f3;"/><path d="M20.67,63.61c0-.13.07-.21.21-.22.02.14.02.28-.06.4-.05-.06-.1-.12-.15-.18h0Z" style="fill:#edf6f3;"/><path d="M21.16,62.19c-.2-.14-.11-.2.07-.23-.02.08-.04.16-.07.23Z" style="fill:#edf6f3;"/><path d="M19.35,54.75c0,.16-.07.27-.21.33-.03-.18.09-.25.21-.33Z" style="fill:#edf6f3;"/><path d="M18.26,58.41c.12.11.09.26.07.39-.1-.12-.09-.26-.07-.39Z" style="fill:#edf6f3;"/><path d="M20.82,65.03c-.07,0-.14.13-.2,0,0,0,.1-.06.16-.09.03.02.05.05.05.09Z" style="fill:#edf6f3;"/><path d="M24.71,64.88c-.07.01-.17.06-.2.04-.08-.08.04-.1.07-.15.04.04.08.08.13.12Z" style="fill:#fdfefe;"/><path d="M21.2,54.64s-.06-.07-.08-.11c.03.04.06.07.08.11Z" style="fill:#edf6f3;"/><path d="M15.08,64.52c.06.03.11.06.17.09-.06-.03-.11-.06-.17-.09Z" style="fill:#edf6f3;"/><path d="M19.84,64.61s.02.05.03.07c0,0-.02.02-.02.03-.03-.03-.03-.07,0-.1Z" style="fill:#edf6f3;"/><path d="M21.03,62.57c.02-.06.04-.12.07-.18-.02.06-.04.12-.07.18Z" style="fill:#edf6f3;"/><path d="M59.99,28.29s-.03-.06-.03-.09c.23-.24.15-.46-.15-.4-.55.11-.05-.27-.18-.34.29-.27.14-.71.39-1,.1-.12.07-.24-.1-.29-.03-.16.15-.38-.14-.45-.21-.12-.46-.22-.67-.16-.38.12-.77.1-1.06-.08-.26-.16-.39,0-.58.04,0-.09-.02-.18-.02-.27-.01-.81-.01-.83.79-.83.4,0,.5-.13.37-.49-.06-.17-.1-.36-.17-.52-.3-.65-.85-.92-1.43-.72-.49.17-.71.7-.58,1.39.01.05.01.11.03.23-.85-.17-1.5-.56-1.78-1.37-.32-.9-.16-1.76.51-2.46.8-.83,1.75-.89,2.68-.19,1.09.83,1.4,2.03,1.58,3.29.02.16.04.33.03.5-.02.33.17.34.42.34.27,0,.34-.11.34-.36-.02-.91-.15-1.8-.44-2.66-.29-.87-.59-1.73-.89-2.6.06-.15.2-.32-.11-.35-.08-.06-.08-.14-.07-.23.12-.14.25-.32.18-.5-.18-.47.05-.89.07-1.34.02-.37.36-.69.14-1.08-.01-.03,0-.05.03-.07.21-.03.34-.18.41-.34.33-.74.8-1.29,1.64-1.43.02,0,.04.03.04.05-.07.42.12.66.54.72,1.02,1.57,1.38,3.2.64,5.03-.62,1.51-1.21,3.05-1.2,4.74,0,.36.12.43.44.42.28,0,.27-.17.29-.36.08-.92.21-1.83.67-2.65.19-.34.41-.66.7-.92.61-.55,1.29-.9,2.11-.55.85.35,1.36,1.01,1.46,1.92.09.87-.2,1.6-.96,2.08-.28.18-.57.34-.96.36.02-.27.11-.54.05-.8-.08-.38-.23-.7-.65-.81-.42-.11-.81-.05-1.11.3-.13.15-.24.33-.32.51-.34.75-.24.92.57.91.4,0,.49.14.48.51-.01.83,0,.83-.81.83-.46,0-.92.02-1.38,0-.33-.01-.37.12-.3.4.1.35.3.63.53.89-.06.02-.18.02-.12.12.25.44-.04.63-.35.83-.05.03-.06.12-.09.19-.03.08-.05.15-.08.23-.39.02-.12.27-.14.42-.04.12-.09.23-.13.35-.11-.1-.13-.42-.31-.3-.31.2-.43-.14-.65-.13-.02-.07-.05-.14-.07-.2.22-.12.16-.19-.04-.24Z" style="fill:#fdfefe;"/><path d="M59.9,26.17c.17.05.2.17.1.29-.24.29-.09.73-.39,1,.14.06-.37.44.18.34.3-.06.38.15.15.4-.22-.02-.43-.09-.61-.21-.52-.34-.53-.56-.06-.93.3-.23.48-.55.62-.89Z" style="fill:#edf6f3;"/><path d="M61.15,13.46c-.84.14-1.31.69-1.64,1.43-.07.16-.2.31-.41.34.25-.83.81-1.49,1.36-2.12.36-.41.48.19.69.36Z" style="fill:#edf6f3;"/><path d="M59.08,15.29c.22.39-.12.71-.14,1.08-.03.44-.26.87-.07,1.34.07.18-.06.35-.18.5-.26-1.03-.05-1.99.39-2.92Z" style="fill:#edf6f3;"/><path d="M60.1,28.73c.22,0,.35.33.65.13.18-.12.2.2.31.3-.09.22-.2.49-.43.49-.12,0-.25-.31-.37-.48-.09-.13-.19-.27-.17-.45Z" style="fill:#edf6f3;"/><path d="M61.42,28.18c.03-.06.04-.16.09-.19.31-.2.6-.4.35-.83-.06-.1.06-.1.12-.12.16.14.55.18.45.43-.16.43-.52.7-1.02.72Z" style="fill:#edf6f3;"/><path d="M57.45,25.52c.19-.05.32-.2.58-.04.29.18.68.2,1.06.08.21-.06.46.04.67.16-.69,0-1.37.01-2.06.02-.16,0-.3,0-.25-.23Z" style="fill:#edf6f3;"/><path d="M61.72,14.23c-.42-.06-.6-.29-.54-.72.21.21.41.44.54.72Z" style="fill:#edf6f3;"/><path d="M61.2,28.82c.02-.15-.25-.4.14-.42-.02.15.02.32-.14.42Z" style="fill:#edf6f3;"/><path d="M58.75,18.44c.31.02.17.2.11.35-.11-.09-.12-.22-.11-.35Z" style="fill:#edf6f3;"/><path d="M59.99,28.29c.2.05.26.12.04.24-.01-.08-.03-.16-.04-.24Z" style="fill:#edf6f3;"/><path d="M64.91,64.96c.03-.27.07-.47.06-.67,0-.46-.18-.84-.65-.98-.46-.13-.88-.02-1.18.39-.11.15-.2.31-.27.48-.29.75-.22.87.56.84.42-.01.54.11.52.53-.03.83,0,.83-.82.83-.46,0-.92.01-1.38,0-.33-.01-.37.12-.28.4.12.38.29.74.65.93.48.24.42.58.06.74-.65.29-.86.84-1.13,1.41-.28.58-.4.56-.74,0-.06-.09-.14-.19-.16-.29-.09-.47-.32-.77-.79-.99-.55-.25-.53-.54-.06-.92.13-.1.25-.22.35-.35.18-.24.36-.55.25-.81-.1-.27-.46-.1-.7-.11-.44-.03-.89-.04-1.33,0-.39.03-.5-.13-.45-.47,0-.05,0-.11,0-.17-.1-.56.11-.82.7-.71.45.08.59-.1.46-.55-.09-.28-.18-.56-.37-.8-.32-.41-.76-.52-1.24-.35-.47.16-.59.58-.6,1.02,0,.18.05.35.07.54-1.17-.16-1.9-.95-1.93-2.06-.04-1.15.73-2.2,1.8-2.38.88-.15,1.53.3,2.06.93.75.9,1,1.99,1.08,3.13.02.27-.04.55.42.53.45-.02.33-.3.33-.54-.01-1.24-.36-2.4-.79-3.54-.15-.4-.28-.8-.44-1.19-.75-1.77-.32-3.38.65-4.92.04-.06.09-.11.14-.17.95-1.32.96-1.33,1.88,0,1.16,1.69,1.51,3.46.67,5.43-.61,1.42-1.13,2.89-1.11,4.47,0,.19-.14.46.26.46.32,0,.45-.08.46-.42.04-.91.21-1.79.66-2.6.13-.22.27-.44.43-.64.68-.82,1.56-1.13,2.34-.85.87.31,1.49,1.2,1.51,2.18.02,1-.48,1.73-1.47,2.11-.13.05-.28.08-.47.14Z" style="fill:#edf6f3;"/><path d="M21.66,20.1c-.32,1.07-.75,2.1-.83,3.24-.02.22,0,.44-.02.65-.04.3.06.42.38.43.33,0,.35-.16.36-.41.03-1.06.27-2.06.87-2.96.65-.97,1.61-1.43,2.47-1.18,1.01.29,1.68,1.32,1.6,2.44-.08,1.05-.79,1.8-1.93,1.97.01-.28.12-.54.05-.81-.09-.36-.23-.66-.62-.78-.4-.12-.77-.04-1.08.24-.17.15-.27.35-.36.55-.36.82-.3.92.58.92.33,0,.49.07.44.43-.02.14-.02.3,0,.44.05.39-.1.51-.49.49-.53-.03-1.07.03-1.6-.02-.44-.03-.44.16-.36.48.11.4.35.73.69.9.5.25.29.57.03.67-.71.28-.9.91-1.18,1.5-.07.14-.2.26-.34.44-.1-.12-.2-.19-.25-.3-.33-.67-.61-1.34-1.35-1.71-.3-.15-.34-.44.09-.61.17-.07.32-.24.44-.4.2-.25.39-.57.27-.86-.1-.24-.46-.09-.71-.1-.46-.02-.92-.02-1.38,0-.28.01-.42-.08-.38-.38.01-.11.01-.22,0-.33-.07-.48.07-.7.61-.65.67.05.71-.03.5-.67-.05-.17-.12-.35-.22-.5-.3-.49-.78-.68-1.27-.54-.45.14-.75.56-.65,1.14.11.65-.2.49-.54.36-.92-.37-1.42-1.22-1.34-2.28.08-.98.81-1.86,1.73-2.06.85-.18,1.82.36,2.41,1.32.53.86.72,1.81.79,2.79.02.28.03.48.42.46.42-.02.3-.29.3-.5,0-1.79-.73-3.39-1.31-5.02-.16-.44-.3-.87-.25-1.34.33.12.45.44.52.72.3,1.06.46,2.16,1.12,3.09.23.33-.02.71.11,1.07.06.18-.04.43.28.44.36,0,.29-.27.28-.47,0-.42-.02-.82.43-1.09.18-.11.22-.42.02-.64h0c0-.3-.04-.65.46-.47.05.02.13-.05.19-.08Z" style="fill:#edf6f3;"/><path d="M21.66,20.1c-.06.03-.14.1-.19.08-.5-.18-.46.17-.46.47,0,.01-.02.03-.02.04,0-.01.02-.03.02-.04.2.22.16.53-.02.64-.45.28-.43.67-.43,1.09,0,.21.07.48-.28.47-.32,0-.22-.26-.28-.44-.12-.35.12-.74-.11-1.07-.66-.93-.82-2.03-1.12-3.09-.08-.28-.19-.6-.52-.72,0-.18,0-.37.01-.55.29-.17.35-.47.44-.76.17-.49.34-.99.56-1.46.21-.45.86-.53.97-1.11.02-.14.22-.03.34.01h0c0,.35-.07.68.43.85.21.07.3.5.68.26.11.08.13.2.15.32-.35.63-.21,1.02.4,1.12.29.91.23,1.81-.12,2.7-.15.39-.31.78-.46,1.18Z" style="fill:#fdfefe;"/><path d="M21.67,14.78c-.38.25-.47-.18-.68-.26-.5-.17-.43-.5-.43-.85,0-.01.02-.03.02-.04,0,.01-.02.03-.02.04-.12-.04-.31-.15-.34-.01-.1.58-.76.66-.97,1.11-.22.47-.39.97-.56,1.46-.1.29-.15.59-.44.76.1-1.56.9-2.79,1.89-3.93.14-.16.23-.13.34,0,.44.53.92,1.04,1.18,1.7Z" style="fill:#edf6f3;"/><path d="M22.23,16.22c-.61-.11-.75-.5-.4-1.12.21.35.36.71.4,1.12Z" style="fill:#edf6f3;"/><path d="M20.68,63.61v.35c-.18-.16-.1-.26,0-.36h0Z" style="fill:#edf6f3;"/><path d="M20.56,64.5l-.09-.18s.05-.02.07-.03c0,.07.02.14.03.21,0,0,0,0,0,0Z" style="fill:#edf6f3;"/><path d="M21.01,20.65s-.02.03-.02.04c0-.01.02-.03.02-.04h0Z" style="fill:#edf6f3;"/><path d="M20.56,13.68s.02-.03.02-.04c0,.01-.02.03-.02.04h0Z" style="fill:#fdfefe;"/></g><line x1="12.51" y1="69.24" x2="69.23" y2="12.59" style="fill:none; stroke:#000; stroke-miterlimit:10; stroke-width:.75px;"/></g></svg>