<?xml version="1.0" encoding="UTF-8"?><svg id="uuid-1ac1e049-d63c-456b-81a9-0242cd8506fd" xmlns="http://www.w3.org/2000/svg" viewBox="0 0 83.93 83.78"><path id="uuid-0703c2de-7e1b-4068-9160-51ddfb57a14e" d="M48.34,31.02h0c2.32,0,4.21,1.88,4.21,4.21,0,2.32-1.88,4.21-4.21,4.21s-4.21-1.88-4.21-4.21c0-2.32,1.88-4.21,4.21-4.21ZM31.86,31.02c2.32,0,4.21,1.88,4.21,4.21s-1.88,4.2-4.21,4.21h0c-2.32,0-4.21-1.88-4.21-4.21s1.88-4.21,4.21-4.21h0ZM64.86,30.96h0c2.36,0,4.27,1.91,4.27,4.27s-1.91,4.27-4.27,4.27-4.27-1.91-4.27-4.27,1.91-4.27,4.27-4.27h0ZM48.36,0h-.01C28.89,0,13.13,15.78,13.13,35.23s15.77,35.23,35.23,35.23c7.76,0,14.94-2.51,20.76-6.76l13.05,2.92c.11.02.22.04.32.04.39,0,.78-.16,1.06-.45.19-.2.32-.44.38-.69v-.61s0-.06,0-.09l-3.76-14.4c2.2-4.6,3.43-9.75,3.43-15.19C83.59,15.77,67.82,0,48.36,0h0ZM12.72,21.88h0C5.08,28.28.22,37.89.22,48.63c0,6,1.52,11.65,4.19,16.58L.05,81.94c-.13.5,0,1.03.37,1.39.26.27.6.42.97.45h0s0,0,0,0h0s.06,0,.09,0c.02,0,.04,0,.07,0h.03s0,0,0,0c.08,0,.15-.02.22-.03l17.64-3.95c4.71,2.37,10.03,3.7,15.67,3.7,10.88,0,20.59-4.98,26.99-12.78h0c-4.26,1.65-8.89,2.55-13.73,2.55-21.01,0-38.05-17.03-38.05-38.05,0-4.7.85-9.19,2.41-13.35h0Z" style="fill:#4b002c;"/></svg>