<?xml version="1.0" encoding="UTF-8"?><svg id="uuid-4f9e62ea-3ad5-437b-8bbc-96997e23378b" xmlns="http://www.w3.org/2000/svg" viewBox="0 0 81.68 81.69"><g id="uuid-be35b4ba-2efc-4358-b282-4c8af8d8d1f8"><path d="M48.15,0l-.26.52-10.6,10.59H11.41l-.26.26v58.89l.26.26h58.89l.26-.26v-25.88l11.12-11.03v41.25c0,3.01-2.93,6.28-5.86,6.82-23.26.36-46.65.36-69.91,0-2.87-.71-4.93-2.77-5.65-5.65C-.25,52.96.18,30.06.04,7.21.13,3.71,3.5,0,7.07,0h41.08Z" style="fill:#4b002c;"/><path d="M24.7,42.38L57.35,9.47c6.55,2.75,11.84,8.28,14.87,14.67l-32.67,32.83c-3.75-5.9-8.68-11.18-14.85-14.59Z" style="fill:#4b002c;"/><path d="M70.13,11.71c-2.52-2.53-5.45-4.63-8.43-6.59L66.86.03c3.13.21,6.51.7,9.24,2.33,4.28,2.55,5.25,7.84,5.54,12.45l-4.95,4.98c-.36.06-1.52-2.04-1.83-2.47-1.42-1.97-3.03-3.89-4.74-5.61Z" style="fill:#4b002c;"/><path d="M18.62,63.05v-14.85c0-.14,1.73-1.9,2.13-1.62,5.44,2.77,10.41,7.14,13.36,12.53.26.48,1.12,1.95.93,2.37-.05.1-1.46,1.57-1.57,1.57h-14.85Z" style="fill:#4b002c;"/></g></svg>