<?xml version="1.0" encoding="UTF-8"?><svg id="uuid-c6183805-732a-4d05-969f-2d43a3db5990" xmlns="http://www.w3.org/2000/svg" viewBox="0 0 83.78 83.78"><g id="uuid-364badd6-b24f-4c74-aad9-1e0d5179df6d"><path d="M41.89,83.78C18.79,83.78,0,64.99,0,41.89S18.79,0,41.89,0s41.89,18.79,41.89,41.89-18.79,41.89-41.89,41.89ZM41.89,5.4C21.77,5.4,5.4,21.77,5.4,41.89s16.37,36.49,36.49,36.49,36.49-16.37,36.49-36.49S62.01,5.4,41.89,5.4Z" style="fill:#4b002c;"/><polygon points="63.42 37.84 45.94 37.84 45.94 20.36 37.84 20.36 37.84 37.84 20.36 37.84 20.36 45.94 37.84 45.94 37.84 63.42 45.94 63.42 45.94 45.94 63.42 45.94 63.42 37.84" style="fill:#4b002c;"/></g></svg>