<?xml version="1.0" encoding="UTF-8"?><svg id="uuid-cc1f3461-cf8e-4cdc-a1f3-a84d3c0ff303" xmlns="http://www.w3.org/2000/svg" viewBox="0 0 76.74 87.63"><path id="uuid-db845ea2-1f8b-42c7-a265-946198bd03ae" d="M37.94.01h1.61s37.2,23.26,37.2,23.26v43.53c-.54,1.11-18.56,10.94-21.33,12.45-2.62,1.43-14.67,8.41-16.36,8.38L2.13,68.01c-1.57-.97-1.59-2.45-1.74-4.1-1.15-12.54.65-27.23.36-39.97C12.53,15.09,25.68,8.18,37.94.01ZM36.79,7.05l-20.78,12.98c3.69-1.29,17.83-1.9,20.16-3.54,1.36-.95.29-7.49.62-9.44ZM62.12,19.39l-20.78-12.35c.33,1.95-.74,8.49.62,9.44.75.53,15.79,3.06,18.07,3.37.7.1,2.24.72,2.09-.47ZM33.54,21.99l-26.6,4.57,8.43,25.95,18.17-30.52ZM71.22,26.53l-26.63-4.55,17.55,29.87,1.35-.9,7.73-24.42ZM58.88,55.76l-19.49-32.47-19.48,32.47h38.97ZM5.62,39.52v21.43l6.55-3.64-6.55-17.79ZM72.52,60.95v-20.78c-.94-.15-.85,1.09-1.13,1.79-.83,2.1-4.87,13.47-4.74,14.78.13,1.39,5.55,4.6,5.87,4.22ZM57.58,60.3H21.2l1.31,2.91,15.95,17.92c1.41.14,2.04-.81,2.89-1.65,3.89-3.82,8.67-9.45,12.3-13.68.52-.6,4.4-5.1,3.91-5.5ZM25.1,74.59c.78-.81-2.02-4.12-2.61-4.85-.84-1.03-6.66-7.62-7.15-7.84-1.83-.83-8.53,3.15-5.41,4.8l15.17,7.88ZM69.26,66.14c.82-1.17-4.38-4.64-5.42-4.44-1.61.31-9.35,10.58-11.46,12.24,2.25.02,16.35-7.03,16.88-7.8Z" style="fill:#4b002c;"/></svg>