<?xml version="1.0" encoding="UTF-8"?><svg id="uuid-7387ad4b-95aa-4716-a026-8549d36cce7f" xmlns="http://www.w3.org/2000/svg" viewBox="0 0 83.78 74.47"><path id="uuid-850ab5a4-8373-4aa8-81a5-4d0dbf4b8ed3" d="M82.61,24.09c-.15-.02-.3-.04-.45-.07-.21-.03-.42-.06-.63-.09-.2-.03-.41-.06-.61-.09-8.01-1.23-16.62-2.99-20.89-10.91l2.05-2.43-.38-.32,1.85-2.19c1.44-1.7,1.35-3.65.45-5.22-.32-.56-.75-1.07-1.24-1.48-.49-.42-1.06-.75-1.66-.98-1.7-.63-3.63-.4-5.08,1.31l-1.92,2.27-.38-.32-5.84,6.9-4.87-7c-.14-.2-.31-.38-.5-.54-.55-.46-1.22-.67-1.87-.68-.63,0-1.27.18-1.76.52-.18.13-.36.28-.51.46l-5.7,6.72c-.15.17-.27.37-.37.58-.26.54-.34,1.2-.23,1.82.12.64.44,1.27.98,1.74.18.15.39.29.62.4l7.7,3.65-4.55,5.37.38.32L1.11,66.48c-1.44,1.7-1.35,3.65-.45,5.22.32.56.75,1.07,1.24,1.48.49.42,1.06.75,1.66.98,1.7.63,3.63.4,5.08-1.31L44.82,30.12l.38.32,1.72-2.03c8.52,2.91,11.67,11.11,14.2,18.81.06.2.13.39.19.59.05.14.09.29.14.43.07.2.13.41.2.61l.32.98c10.96-5.12,19.44-12.52,21.81-25.55-.41-.06-1.06-.17-1.17-.18Z" style="fill:#4b002c; fill-rule:evenodd;"/></svg>