<?xml version="1.0" encoding="UTF-8"?><svg id="uuid-d12b7678-0ba6-458c-8095-3dcc2f873ac9" xmlns="http://www.w3.org/2000/svg" xmlns:xlink="http://www.w3.org/1999/xlink" viewBox="0 0 56.91 83.78"><defs><clipPath id="uuid-025902d6-b499-44bd-ba87-e4aa19829a5e"><path d="M18.57,12.26l-1.09-3.62h6.49c.98.03,1.79-1.01,1.49-1.95-.35-.81-.82-1.57-.76-2.53C24.7,1.86,26.58,0,28.87,0c3.13-.07,5.21,3.55,3.61,6.22l1.29,2.42h5.65l-1.09,3.62h-19.77ZM28.8,30.22c2.03,0,2.04,3.11,0,3.1H11.56c-2.03-.03-2.04-3.06,0-3.1h17.24ZM10.01,52.09c0-.85.7-1.55,1.55-1.55h33.79c.85,0,1.55.7,1.55,1.55s-.7,1.55-1.55,1.55H11.56c-.85,0-1.55-.7-1.55-1.55ZM11.56,60.68h33.79c2.03.04,2.05,3.06,0,3.1H11.56c-2.03-.04-2.05-3.06,0-3.1ZM45.35,40.39c2.03.04,2.05,3.06,0,3.1H11.56c-2.03-.04-2.05-3.06,0-3.1h33.79ZM55.36,10.24h-13.17c-.21.74-.99,3.36-1.19,4.02-.2.65-.81,1.1-1.49,1.1h-22.09c-.68,0-1.29-.45-1.49-1.1-.24-.72-.97-3.28-1.19-4.02H1.55c-.85,0-1.55.68-1.55,1.55v70.44c0,.85.7,1.55,1.55,1.55h53.81c.85,0,1.55-.7,1.55-1.55V11.79c0-.87-.7-1.55-1.55-1.55Z" style="fill:#4b002c;"/></clipPath><clipPath id="uuid-85d02ae9-1b7c-4e22-bb84-13bcad1aaa49"><path d="M18.57,12.26l-1.09-3.62h6.49c.98.03,1.79-1.01,1.49-1.95-.35-.81-.82-1.57-.76-2.53C24.7,1.86,26.58,0,28.87,0c3.13-.07,5.21,3.55,3.61,6.22l1.29,2.42h5.65l-1.09,3.62h-19.77ZM28.8,30.22c2.03,0,2.04,3.11,0,3.1H11.56c-2.03-.03-2.04-3.06,0-3.1h17.24ZM10.01,52.09c0-.85.7-1.55,1.55-1.55h33.79c.85,0,1.55.7,1.55,1.55s-.7,1.55-1.55,1.55H11.56c-.85,0-1.55-.7-1.55-1.55ZM11.56,60.68h33.79c2.03.04,2.05,3.06,0,3.1H11.56c-2.03-.04-2.05-3.06,0-3.1ZM45.35,40.39c2.03.04,2.05,3.06,0,3.1H11.56c-2.03-.04-2.05-3.06,0-3.1h33.79ZM55.36,10.24h-13.17c-.21.74-.99,3.36-1.19,4.02-.2.65-.81,1.1-1.49,1.1h-22.09c-.68,0-1.29-.45-1.49-1.1-.24-.72-.97-3.28-1.19-4.02H1.55c-.85,0-1.55.68-1.55,1.55v70.44c0,.85.7,1.55,1.55,1.55h53.81c.85,0,1.55-.7,1.55-1.55V11.79c0-.87-.7-1.55-1.55-1.55Z" style="fill:#4b002c;"/></clipPath></defs><g id="uuid-7d17cda3-5002-4d60-858b-010f0f206119"><path d="M18.57,12.26l-1.09-3.62h6.49c.98.03,1.79-1.01,1.49-1.95-.35-.81-.82-1.57-.76-2.53C24.7,1.86,26.58,0,28.87,0c3.13-.07,5.21,3.55,3.61,6.22l1.29,2.42h5.65l-1.09,3.62h-19.77ZM28.8,30.22c2.03,0,2.04,3.11,0,3.1H11.56c-2.03-.03-2.04-3.06,0-3.1h17.24ZM10.01,52.09c0-.85.7-1.55,1.55-1.55h33.79c.85,0,1.55.7,1.55,1.55s-.7,1.55-1.55,1.55H11.56c-.85,0-1.55-.7-1.55-1.55ZM11.56,60.68h33.79c2.03.04,2.05,3.06,0,3.1H11.56c-2.03-.04-2.05-3.06,0-3.1ZM45.35,40.39c2.03.04,2.05,3.06,0,3.1H11.56c-2.03-.04-2.05-3.06,0-3.1h33.79ZM55.36,10.24h-13.17c-.21.74-.99,3.36-1.19,4.02-.2.65-.81,1.1-1.49,1.1h-22.09c-.68,0-1.29-.45-1.49-1.1-.24-.72-.97-3.28-1.19-4.02H1.55c-.85,0-1.55.68-1.55,1.55v70.44c0,.85.7,1.55,1.55,1.55h53.81c.85,0,1.55-.7,1.55-1.55V11.79c0-.87-.7-1.55-1.55-1.55Z" style="fill:#4b002c;"/><g style="clip-path:url(#uuid-025902d6-b499-44bd-ba87-e4aa19829a5e);"><path d="M18.57,12.26l-1.09-3.62h6.49c.98.03,1.79-1.01,1.49-1.95-.35-.81-.82-1.57-.76-2.53C24.7,1.86,26.58,0,28.87,0c3.13-.07,5.21,3.55,3.61,6.22l1.29,2.42h5.65l-1.09,3.62h-19.77ZM28.8,30.22c2.03,0,2.04,3.11,0,3.1H11.56c-2.03-.03-2.04-3.06,0-3.1h17.24ZM10.01,52.09c0-.85.7-1.55,1.55-1.55h33.79c.85,0,1.55.7,1.55,1.55s-.7,1.55-1.55,1.55H11.56c-.85,0-1.55-.7-1.55-1.55ZM11.56,60.68h33.79c2.03.04,2.05,3.06,0,3.1H11.56c-2.03-.04-2.05-3.06,0-3.1ZM45.35,40.39c2.03.04,2.05,3.06,0,3.1H11.56c-2.03-.04-2.05-3.06,0-3.1h33.79ZM55.36,10.24h-13.17c-.21.74-.99,3.36-1.19,4.02-.2.65-.81,1.1-1.49,1.1h-22.09c-.68,0-1.29-.45-1.49-1.1-.24-.72-.97-3.28-1.19-4.02H1.55c-.85,0-1.55.68-1.55,1.55v70.44c0,.85.7,1.55,1.55,1.55h53.81c.85,0,1.55-.7,1.55-1.55V11.79c0-.87-.7-1.55-1.55-1.55Z" style="fill:#4b002c;"/><g style="clip-path:url(#uuid-85d02ae9-1b7c-4e22-bb84-13bcad1aaa49);"><path d="M0-.07v83.86h56.91V-.07H0Z" style="fill:#4b002c;"/></g></g></g></svg>