<?xml version="1.0" encoding="UTF-8"?>
<svg id="Bio" xmlns="http://www.w3.org/2000/svg" viewBox="0 0 100 100">
  <defs>
    <style>
      .cls-1 {
        fill: #4b002c;
      }
    </style>
  </defs>
  <path class="cls-1" d="M29.07,91.88h-.49c-1.21,0-2.41,0-3.62,0-1.67-.01-2.93-.74-3.78-2.18-.38-.65-.53-1.37-.53-2.11-.01-1.55,0-3.09,0-4.64,0-.16,0-.32,0-.5-.2,0-.34-.02-.49-.02-.57,0-1.15,0-1.72,0-1.99,0-3.78-1.61-4-3.59-.04-.33-.06-.67-.06-1.01,0-5.36-.01-10.72,0-16.08,0-1.7.76-3.02,2.23-3.9.6-.36,1.27-.54,1.97-.54.57,0,1.15,0,1.72,0h.49v-.6c0-8.26,0-16.52,0-24.78,0-1.96.7-3.67,1.94-5.17.52-.63,1.14-1.14,1.83-1.58.11-.07.22-.12.39-.21v.58c0,5.96,0,11.92,0,17.89,0,1.53.4,2.94,1.38,4.14,1.27,1.56,2.93,2.39,4.94,2.4,4.68.02,9.36,0,14.04,0,.17,0,.35,0,.56,0,0,.69,0,1.34,0,1.98,0,.42.09.81.31,1.18.45.74,1.15,1.03,1.97,1.05,1.25.02,2.5.02,3.75,0,.76,0,1.45-.23,1.92-.9.3-.42.42-.9.42-1.41,0-.49,0-.97,0-1.46,0-.13.01-.26.02-.44.19,0,.36,0,.54,0,4.64,0,9.27.01,13.91,0,2.56,0,4.48-1.17,5.72-3.4.46-.83.69-1.74.69-2.7,0-6.11,0-12.22,0-18.33v-.58c.15.07.26.1.35.15,2.11,1.37,3.38,3.3,3.78,5.79.06.4.09.82.09,1.23,0,8.18,0,16.37,0,24.55v.61c.25,0,.45,0,.65,0,.76.02,1.54-.02,2.29.09,1.86.29,3.33,2.07,3.33,3.95,0,5.68,0,11.36,0,17.05,0,2.15-1.87,4.02-4.03,4.03-.59,0-1.18,0-1.77,0-.14,0-.29.01-.47.02v.51c0,1.59-.02,3.18,0,4.77.02,1.89-1.45,3.86-3.69,4.1-.25.03-.5.04-.75.04-1.13,0-2.27,0-3.4,0h-.53v-.57c0-4.49-.01-8.98,0-13.47,0-1.59-.47-2.99-1.57-4.14-.96-1-2.15-1.58-3.54-1.7-.48-.04-.97-.05-1.45-.05-9.83,0-19.67,0-29.5,0-1.45,0-2.76.37-3.87,1.33-1.28,1.1-1.99,2.49-1.99,4.2,0,4.59,0,9.19,0,13.78,0,.17,0,.35,0,.61Z"/>
  <path class="cls-1" d="M45.86,45.82c-.17,0-.31,0-.46,0-4.68,0-9.36-.01-14.04,0-1.1,0-2.24-.79-2.24-2.26,0-6.43,0-12.87,0-19.3v-.43c.9-.06,1.76-.02,2.62-.03.86,0,1.73,0,2.61,0,.12-5.15,2.14-9.33,6.16-12.47,3.03-2.36,6.52-3.4,10.34-3.21,4.16.21,7.72,1.83,10.59,4.85,2.85,3,4.27,6.62,4.33,10.83h5.23c0,.21.02.35.02.49,0,6.39,0,12.78,0,19.17,0,.51-.08.99-.38,1.42-.42.6-.99.92-1.72.93-4.78,0-9.57,0-14.35,0-.09,0-.17,0-.31-.02,0-.19,0-.36,0-.53-.02-.6,0-1.21-.06-1.8-.13-1.08-.94-1.81-2.02-1.84-1.4-.03-2.8-.03-4.2,0-1.21.03-2.08.95-2.09,2.17,0,.52,0,1.03,0,1.55,0,.14-.01.29-.02.47ZM59.49,23.78c-.15-3.47-1.61-6.15-4.52-7.99-3.1-1.95-7.31-1.79-10.29.31-2.94,2.07-4.15,5.52-3.94,7.68h18.75Z"/>
  <path class="cls-1" d="M33.33,91.83v-.5c0-4.55.02-9.1-.01-13.64,0-.8.54-1.56,1.57-1.56,10.13.01,20.25,0,30.38,0,.58,0,1.06.19,1.38.71.15.25.18.52.18.8,0,2.02,0,4.03,0,6.05,0,2.53,0,5.06,0,7.59v.51c-.36.1-32.88.13-33.49.03Z"/>
</svg>