<?xml version="1.0" encoding="UTF-8"?>
<svg id="Bio" xmlns="http://www.w3.org/2000/svg" viewBox="0 0 100 100">
  <defs>
    <style>
      .cls-1 {
        fill: #4b002c;
      }
    </style>
  </defs>
  <path class="cls-1" d="M50,8.11c-23.14,0-41.89,18.76-41.89,41.89s18.76,41.89,41.89,41.89,41.89-18.76,41.89-41.89S73.14,8.11,50,8.11ZM50,85.07c-19.37,0-35.07-15.7-35.07-35.07S30.63,14.93,50,14.93s35.07,15.7,35.07,35.07-15.7,35.07-35.07,35.07Z"/>
  <path class="cls-1" d="M27.25,36.78c5.21,3.04,22.75,33.41,22.8,39.49-.05-6.08,17.48-36.44,22.8-39.49-5.31,3.04-40.38,3.04-45.59,0ZM50,70.19l-17.53-30.37h35.07l-17.53,30.37Z"/>
  <path class="cls-1" d="M72.85,62.82c1.34-6.15-16.94-38.33-22.8-39.49-5.96,1.14-24.31,33.38-22.8,39.49,4.79,3.46,41.24,3.86,45.59,0ZM51.29,31.48l14.87,25.76c.65,1.13-.16,2.55-1.47,2.55h-29.81c-1.03,0-1.67-1.11-1.16-2l15.18-26.3c.53-.92,1.85-.92,2.38,0Z"/>
  <path class="cls-1" d="M69.83,31.48c-2.93,1.67-3.95,5.4-2.28,8.32,1.67,2.93,5.4,3.95,8.32,2.28,2.93-1.67,3.95-5.4,2.28-8.32s-5.4-3.95-8.32-2.28ZM75.33,41.15c-3.02,1.72-5.12,1.14-6.84-1.88-1.82-3.19-1.14-5.12,1.88-6.84,3.02-1.72,5.12-1.14,6.84,1.88,1.72,3.02,1.14,5.12-1.88,6.84Z"/>
  <path class="cls-1" d="M21.96,33.76c-1.67,2.93-.65,6.66,2.28,8.32s6.66.65,8.32-2.28.65-6.66-2.28-8.32-6.66-.65-8.32,2.28ZM22.91,34.3c1.72-3.02,3.83-3.6,6.84-1.88s3.69,3.65,1.88,6.84c-1.72,3.02-3.82,3.6-6.84,1.88-3.02-1.72-3.6-3.82-1.88-6.84Z"/>
  <path class="cls-1" d="M43.87,76.43c-.02,3.37,2.7,6.12,6.07,6.14s6.12-2.7,6.14-6.07c.02-3.37-2.7-6.12-6.07-6.14-3.37-.02-6.12,2.7-6.14,6.07ZM54.99,76.49c-.02,3.48-1.57,5.01-5.05,4.99-3.67-.02-5.01-1.57-4.99-5.05.02-3.47,1.57-5.01,5.05-4.99s5.01,1.57,4.99,5.05Z"/>
  <circle class="cls-1" cx="50.21" cy="22.95" r="6.1"/>
  <circle class="cls-1" cx="72.85" cy="62.62" r="6.1"/>
  <circle class="cls-1" cx="27.27" cy="62.62" r="6.1"/>
</svg>