<?xml version="1.0" encoding="UTF-8"?>
<svg id="Bio" xmlns="http://www.w3.org/2000/svg" xmlns:xlink="http://www.w3.org/1999/xlink" viewBox="0 0 100 100">
  <defs>
    <style>
      .cls-1 {
        clip-path: url(#clippath-1);
      }

      .cls-2 {
        clip-path: url(#clippath);
      }

      .cls-3 {
        fill: currentColor;
      }
    </style>
    <clipPath id="clippath">
      <path class="cls-3" d="M40.12,20.37l-1.09-3.62h6.49c.98.03,1.79-1.01,1.49-1.95-.35-.81-.82-1.57-.76-2.53,0-2.3,1.88-4.16,4.17-4.16,3.13-.07,5.21,3.55,3.61,6.22l1.29,2.42h5.65l-1.09,3.62h-19.77ZM50.34,38.33c2.03,0,2.04,3.11,0,3.1h-17.24c-2.03-.03-2.04-3.06,0-3.1h17.24ZM31.55,60.19c0-.85.7-1.55,1.55-1.55h33.79c.85,0,1.55.7,1.55,1.55s-.7,1.55-1.55,1.55h-33.79c-.85,0-1.55-.7-1.55-1.55ZM33.1,68.79h33.79c2.03.04,2.05,3.06,0,3.1h-33.79c-2.03-.04-2.05-3.06,0-3.1ZM66.9,48.5c2.03.04,2.05,3.06,0,3.1h-33.79c-2.03-.04-2.05-3.06,0-3.1h33.79ZM76.9,18.35h-13.17c-.21.74-.99,3.36-1.19,4.02-.2.65-.81,1.1-1.49,1.1h-22.09c-.68,0-1.29-.45-1.49-1.1-.24-.72-.97-3.28-1.19-4.02h-13.17c-.85,0-1.55.68-1.55,1.55v70.44c0,.85.7,1.55,1.55,1.55h53.81c.85,0,1.55-.7,1.55-1.55V19.9c0-.87-.7-1.55-1.55-1.55Z"/>
    </clipPath>
    <clipPath id="clippath-1">
      <path class="cls-3" d="M40.12,20.37l-1.09-3.62h6.49c.98.03,1.79-1.01,1.49-1.95-.35-.81-.82-1.57-.76-2.53,0-2.3,1.88-4.16,4.17-4.16,3.13-.07,5.21,3.55,3.61,6.22l1.29,2.42h5.65l-1.09,3.62h-19.77ZM50.34,38.33c2.03,0,2.04,3.11,0,3.1h-17.24c-2.03-.03-2.04-3.06,0-3.1h17.24ZM31.55,60.19c0-.85.7-1.55,1.55-1.55h33.79c.85,0,1.55.7,1.55,1.55s-.7,1.55-1.55,1.55h-33.79c-.85,0-1.55-.7-1.55-1.55ZM33.1,68.79h33.79c2.03.04,2.05,3.06,0,3.1h-33.79c-2.03-.04-2.05-3.06,0-3.1ZM66.9,48.5c2.03.04,2.05,3.06,0,3.1h-33.79c-2.03-.04-2.05-3.06,0-3.1h33.79ZM76.9,18.35h-13.17c-.21.74-.99,3.36-1.19,4.02-.2.65-.81,1.1-1.49,1.1h-22.09c-.68,0-1.29-.45-1.49-1.1-.24-.72-.97-3.28-1.19-4.02h-13.17c-.85,0-1.55.68-1.55,1.55v70.44c0,.85.7,1.55,1.55,1.55h53.81c.85,0,1.55-.7,1.55-1.55V19.9c0-.87-.7-1.55-1.55-1.55Z"/>
    </clipPath>
  </defs>
  <path class="cls-3" d="M40.12,20.37l-1.09-3.62h6.49c.98.03,1.79-1.01,1.49-1.95-.35-.81-.82-1.57-.76-2.53,0-2.3,1.88-4.16,4.17-4.16,3.13-.07,5.21,3.55,3.61,6.22l1.29,2.42h5.65l-1.09,3.62h-19.77ZM50.34,38.33c2.03,0,2.04,3.11,0,3.1h-17.24c-2.03-.03-2.04-3.06,0-3.1h17.24ZM31.55,60.19c0-.85.7-1.55,1.55-1.55h33.79c.85,0,1.55.7,1.55,1.55s-.7,1.55-1.55,1.55h-33.79c-.85,0-1.55-.7-1.55-1.55ZM33.1,68.79h33.79c2.03.04,2.05,3.06,0,3.1h-33.79c-2.03-.04-2.05-3.06,0-3.1ZM66.9,48.5c2.03.04,2.05,3.06,0,3.1h-33.79c-2.03-.04-2.05-3.06,0-3.1h33.79ZM76.9,18.35h-13.17c-.21.74-.99,3.36-1.19,4.02-.2.65-.81,1.1-1.49,1.1h-22.09c-.68,0-1.29-.45-1.49-1.1-.24-.72-.97-3.28-1.19-4.02h-13.17c-.85,0-1.55.68-1.55,1.55v70.44c0,.85.7,1.55,1.55,1.55h53.81c.85,0,1.55-.7,1.55-1.55V19.9c0-.87-.7-1.55-1.55-1.55Z"/>
  <g class="cls-2">
    <g>
      <path class="cls-3" d="M40.12,20.37l-1.09-3.62h6.49c.98.03,1.79-1.01,1.49-1.95-.35-.81-.82-1.57-.76-2.53,0-2.3,1.88-4.16,4.17-4.16,3.13-.07,5.21,3.55,3.61,6.22l1.29,2.42h5.65l-1.09,3.62h-19.77ZM50.34,38.33c2.03,0,2.04,3.11,0,3.1h-17.24c-2.03-.03-2.04-3.06,0-3.1h17.24ZM31.55,60.19c0-.85.7-1.55,1.55-1.55h33.79c.85,0,1.55.7,1.55,1.55s-.7,1.55-1.55,1.55h-33.79c-.85,0-1.55-.7-1.55-1.55ZM33.1,68.79h33.79c2.03.04,2.05,3.06,0,3.1h-33.79c-2.03-.04-2.05-3.06,0-3.1ZM66.9,48.5c2.03.04,2.05,3.06,0,3.1h-33.79c-2.03-.04-2.05-3.06,0-3.1h33.79ZM76.9,18.35h-13.17c-.21.74-.99,3.36-1.19,4.02-.2.65-.81,1.1-1.49,1.1h-22.09c-.68,0-1.29-.45-1.49-1.1-.24-.72-.97-3.28-1.19-4.02h-13.17c-.85,0-1.55.68-1.55,1.55v70.44c0,.85.7,1.55,1.55,1.55h53.81c.85,0,1.55-.7,1.55-1.55V19.9c0-.87-.7-1.55-1.55-1.55Z"/>
      <g class="cls-1">
        <path class="cls-3" d="M21.55,8.04v83.86h56.91V8.04H21.55Z"/>
      </g>
    </g>
  </g>
</svg>