<?xml version="1.0" encoding="UTF-8"?>
<svg id="Bio" xmlns="http://www.w3.org/2000/svg" viewBox="0 0 100 100">
  <defs>
    <style>
      .cls-1 {
        fill: #4b002c;
        fill-rule: evenodd;
      }
    </style>
  </defs>
  <path class="cls-1" d="M56.13,8.56c-4.07-.6-8.2-.6-12.26,0,0,0-1.64,7.35-2.5,11.16-.3,1.34-1.24,2.45-2.51,2.97-.1.04-.2.08-.3.13-1.27.53-2.71.41-3.87-.32-3.3-2.09-9.66-6.12-9.66-6.12-3.3,2.45-6.22,5.37-8.67,8.67,0,0,4.03,6.36,6.12,9.66.74,1.16.86,2.61.32,3.87-.04.1-.08.2-.13.3-.52,1.27-1.63,2.21-2.96,2.51-3.81.85-11.16,2.5-11.16,2.5-.6,4.07-.6,8.2,0,12.26,0,0,7.35,1.64,11.16,2.5,1.34.3,2.45,1.24,2.97,2.51.04.1.08.2.13.3.53,1.27.41,2.71-.32,3.87-2.09,3.3-6.12,9.66-6.12,9.66,2.45,3.3,5.37,6.22,8.67,8.67,0,0,6.36-4.03,9.66-6.12,1.16-.74,2.61-.86,3.87-.32.1.04.2.08.3.13,1.27.52,2.21,1.63,2.51,2.96.85,3.81,2.5,11.16,2.5,11.16,4.07.6,8.2.6,12.26,0,0,0,1.65-7.35,2.5-11.16.3-1.34,1.24-2.45,2.51-2.97.1-.04.2-.08.3-.13,1.26-.53,2.71-.41,3.87.32,3.3,2.09,9.66,6.12,9.66,6.12,3.3-2.45,6.22-5.37,8.67-8.67,0,0-4.03-6.36-6.12-9.66-.74-1.16-.86-2.61-.32-3.87.04-.1.09-.2.13-.3.52-1.27,1.63-2.21,2.97-2.51,3.81-.85,11.16-2.5,11.16-2.5.6-4.07.6-8.2,0-12.26,0,0-7.35-1.65-11.16-2.5-1.34-.3-2.45-1.24-2.97-2.51-.04-.1-.08-.2-.13-.3-.53-1.26-.41-2.71.32-3.87,2.09-3.3,6.12-9.66,6.12-9.66-2.45-3.3-5.37-6.22-8.67-8.67,0,0-6.36,4.03-9.66,6.12-1.16.74-2.61.86-3.87.32-.1-.04-.2-.09-.3-.13-1.27-.52-2.21-1.63-2.51-2.97-.85-3.81-2.5-11.16-2.5-11.16ZM50,33.73c8.98,0,16.27,7.29,16.27,16.27s-7.29,16.27-16.27,16.27-16.27-7.29-16.27-16.27,7.29-16.27,16.27-16.27"/>
</svg>