<?xml version="1.0" encoding="UTF-8"?>
<svg xmlns="http://www.w3.org/2000/svg" version="1.1" xmlns:xlink="http://www.w3.org/1999/xlink" viewBox="0 0 24 24">
  <defs>
    <style>
      .cls-1 {
        fill: #fdb5aa;
      }

      .cls-2 {
        fill: #010101;
      }

      .cls-3 {
        fill: #feb5ab;
      }

      .cls-4 {
        fill: #fee0cf;
      }

      .cls-5 {
        fill: #ffe1cf;
      }

      .cls-6 {
        display: none;
      }

      .cls-7 {
        fill: #f15a24;
      }

      .cls-8 {
        fill: #fefefe;
      }

      .cls-9 {
        fill: #fdfefe;
      }

      .cls-10 {
        fill: #030202;
      }
    </style>
  </defs>
  <!-- Generator: Adobe Illustrator 28.7.5, SVG Export Plug-In . SVG Version: 1.2.0 Build 176)  -->
  <g>
    <g id="Layer_1">
      <g>
        <g id="Layer_1-2" data-name="Layer_1" class="cls-6">
          <g id="Layer_1-2">
            <g id="Layer_1-2-2" data-name="Layer_1-2">
              <g>
                <path class="cls-5" d="M14,24H3.6c-.5,0-.9-.1-1.4-.2-.7-.1-1.4-.3-2.1-.5h0v-7.9h1.8c.3,0,.5-.3.7-.5v-.6s-.2-.2-.3-.3c-.2-.1-.4-.2-.6-.3-.2,0-.4-.2-.6-.3-.1,0-.2,0-.3-.1-.2,0-.4-.2-.6-.2H0v-2.4h.1c.2.5.4.9.7,1.2.9,1,2,1.5,3.3,1.7h1.1c.4,0,.8-.1,1.2-.3,1.1-.5,2-1.2,2.7-2.2h0c-.2-.6-.5-1.2-.9-1.7-.5-.7-1.2-1.2-2-1.5s-1.5-.4-2.3-.3c-.4,0-.9.2-1.3.3-.6.2-1.2.6-1.7,1-.3.3-.6.7-.9,1.1h0v-5.3h2c.5,0,1.1.2,1.6.5.7.3,1.4.6,2,1.1.8.5,1.5,1.1,2.2,1.8s1.6,1.6,2.3,2.5c.8,1.1,1.6,2.2,2.3,3.3h0c0,.1-.2.3-.2.4-.2.3-.3.6-.2.9,0,.2.2.4.3.6.2.2.3.3.6.5.6.4,1.3.6,2,.6h0c0,.3.1.6.2.9,0,.4.2.9.2,1.3v.4h-3.8c-.3,0-.6,0-.9-.1h-.2c.6.3,1.3.4,1.9.5.3,0,.6,0,1,.1h1.5c.4,0,.8,0,1.2-.2h0c0,.3.2.7.3,1,.3.8.7,1.6,1.2,2.3h0c-.1,0-.3,0-.4.1-.8.3-1.7.5-2.5.7-.2,0-.5,0-.7.1h-.1,0Z"/>
                <path class="cls-7" d="M0,0h19.8c.2.5.5.9.7,1.4.2.3.4.6.6.9h-.2c-.5-.3-1-.5-1.6-.5s-1,0-1.5.1c-.9.2-1.6.8-2.1,1.6-.2.4-.4.8-.5,1.3-.1.4-.2.8-.2,1.2v4.1c0,.4,0,.8.2,1.2,0,.5.2,1.1.3,1.6h0c-.4,0-.9,0-1.3.1-.4,0-.8.2-1.1.3h0c-.1-.2-.2-.4-.4-.6-.6-1-1.3-2-2.1-2.9-.6-.7-1.1-1.4-1.8-2-.5-.5-1-.9-1.5-1.4-.6-.5-1.2-.9-1.8-1.3-.6-.4-1.3-.7-2-1-.6-.2-1.3-.4-1.9-.4H.3V.1h-.3Z"/>
                <path class="cls-4" d="M24.1,8.5v.7h-.5c-.2,0-.3,0-.5.2-.2,0-.4.2-.6.4-.2.1-.3.2-.5.4-.2.1-.4.3-.5.5h-.1c0,.1-.2.3-.2.4v.4s.2.1.2.2c.2.1.4.1.6.1h.4c.2,0,.4,0,.5-.1.2,0,.5-.2.7-.2s.3-.2.5-.3v8.8h0c-.5.4-1.1.8-1.6,1.1h-.1c0-.1,0-.2-.1-.3,0-.1,0-.2-.2-.3,0-.1-.1-.2-.2-.3s-.1-.2-.2-.3c0,0-.1-.2-.2-.3,0,0-.2-.2-.2-.3l-.3-.3s-.2-.2-.3-.2-.2-.1-.3-.2c-.1,0-.2-.1-.3-.2-.1,0-.2,0-.3-.2h0c.3-.3.5-.6.7-.9h0l-.3.3s-.2.2-.3.2c0,0-.2.1-.3.2,0,0-.2.1-.3.2-.3.2-.7.4-1,.5h-.3c-.5.2-.9.3-1.4.4h-.5c0-.2,0-.4-.1-.5,0-.4-.2-.9-.2-1.3s0-.5-.1-.8h0s.2,0,.2-.1c.3-.1.5-.3.8-.6.3-.3.5-.6.7-1,0-.2.1-.4.1-.7s-.2-.7-.5-.9h-.2c-.1,0-.2,0-.4-.1h0c0-.4-.2-.9-.2-1.3s-.1-1-.2-1.4c0-.4,0-.7-.1-1.1v-3.1c0-.4.1-.8.3-1.2.1-.4.3-.7.5-1,.4-.5.8-.9,1.4-1.1.3,0,.6-.2.9-.2h1c.5,0,.9.3,1.2.5.3.2.5.4.7.7.3.3.5.7.7,1.1.3.5.5,1,.7,1.6h-.6c-.2-.3-.5-.4-.8-.6-.8-.4-1.7-.5-2.5-.3-1.1.2-1.9.8-2.4,1.8-.4.7-.5,1.5-.5,2.3h0c.2.2.5.4.8.5.5.3,1,.4,1.5.5.6,0,1.2,0,1.7-.3,1-.4,1.6-1.2,2-2.1.2-.4.3-.8.3-1.2v-.3h0c.2,0,.3,0,.5-.2h0c.1.3.3.7.4,1s.3.6.5.9h0v-.2h-.1Z"/>
                <path class="cls-10" d="M16.1,9.6c0-.8.1-1.6.5-2.3.5-1,1.3-1.6,2.4-1.8.9-.2,1.7,0,2.5.3.3,0,.6.3.8.6h.6c-.2-.5-.5-1.1-.7-1.6-.2-.4-.4-.7-.7-1.1-.2-.3-.5-.5-.7-.7-.4-.3-.8-.4-1.2-.5h-1c-.3,0-.6,0-.9.2-.6.2-1.1.6-1.4,1.1-.2.3-.3.6-.5,1-.1.4-.2.8-.3,1.2,0,.6-.1,1.2,0,1.9v1.2c0,.4,0,.7.1,1.1,0,.5.1,1,.2,1.4,0,.4.2.9.2,1.3h0s.3,0,.4.1h.2c.3.2.5.5.5.9s0,.5-.1.7c-.2.4-.4.7-.7,1-.2.2-.5.4-.8.6,0,0-.1,0-.2.1h0c0,.3,0,.5.1.8,0,.4.2.9.2,1.3s0,.4.1.5h.5c.5-.1.9-.2,1.4-.4h.3c.4-.1.7-.3,1-.5.1,0,.2-.1.3-.2.1,0,.2-.1.3-.2,0,0,.2-.2.3-.2l.3-.3h0c-.2.3-.4.7-.7.9h0c.1,0,.2.1.3.2.1,0,.2.1.3.2.1,0,.2.1.3.2s.2.2.3.2l.3.3s.2.2.2.3c0,0,.1.2.2.3,0,0,.1.2.2.3,0,.1.1.2.2.3,0,.1.1.2.2.3,0,.1,0,.2.1.3h.1c.6-.3,1.1-.7,1.6-1.1h0v.7h0c-.4.3-.7.5-1.1.8-.2.1-.3.2-.5.3h0v1c-.1.6-.5,1-1,1.3h-2.1c-.2-.1-.5-.3-.7-.4h0c-.5.2-.9.3-1.4.4h-2.4c-.8,0,0,0-.1,0h0c.2,0,.5,0,.7-.1.9-.2,1.7-.4,2.5-.7.1,0,.3,0,.4-.1h0c-.6-.7-1-1.4-1.2-2.3-.1-.3-.2-.7-.3-1h0c-.4,0-.8.1-1.2.2h-1.5c-.3,0-.6,0-1-.1-.7-.1-1.3-.3-1.9-.5h.2c.3,0,.6,0,.9.1h3.8v-.4c0-.4-.2-.9-.2-1.3s-.1-.6-.2-.9h0c-.7,0-1.4-.2-2-.6-.2-.1-.4-.3-.6-.5-.1-.2-.3-.4-.3-.6,0-.3,0-.7.2-.9,0-.1.2-.2.2-.3h0c-.7-1.3-1.5-2.4-2.3-3.4-.7-.9-1.5-1.7-2.3-2.5-.7-.6-1.4-1.2-2.2-1.8-.6-.4-1.3-.8-2-1.1-.5-.2-1-.4-1.6-.5H.7v-.5h1.3c.7,0,1.3.2,1.9.4.7.2,1.4.6,2,1s1.3.8,1.8,1.3c.5.4,1,.9,1.5,1.4.6.6,1.2,1.3,1.8,2,.7.9,1.4,1.9,2.1,2.9.1.2.2.4.4.6h0c.4-.2.7-.3,1.1-.3s.9-.1,1.3-.1h0c-.1-.5-.2-1.1-.3-1.6,0-.4-.1-.8-.2-1.2v-4.1c0-.4.1-.8.2-1.2.1-.4.3-.9.5-1.3.5-.8,1.2-1.3,2.1-1.6.5,0,1-.2,1.5,0,.6,0,1.1.2,1.6.5h.2c-.2-.4-.4-.7-.6-1-.2-.4-.5-.8-.7-1.3h.7c.2.5.4.8.6,1.2.4.7.8,1.4,1.2,2.1h0c.1,0,.2-.3.3-.4.1-.3.2-.5.3-.8.2-.7.3-1.4.4-2.1h.6c0,.4-.1.8-.2,1.1,0,.4-.2.9-.3,1.3,0,.3-.2.6-.3.8-.1.2-.3.4-.5.6h0c.1.3.2.5.3.8h0c.2.4.4.8.6,1.3h0s.1.3.2.4c0,.2.1.3.2.5h0v1.3c-.2-.3-.4-.6-.5-.9s-.3-.7-.4-1h0c-.2,0-.3,0-.5.2h0v.3c0,.4,0,.8-.3,1.2-.4,1-1.1,1.7-2,2.1-.5.3-1.1.3-1.7.3s-1.1-.2-1.5-.5c-.3-.2-.5-.3-.8-.5h0c.4.2.8.4,1.2.5.5.1.9.2,1.4.1.4,0,.8-.1,1.1-.3,1-.5,1.6-1.2,2-2.2.1-.3.2-.6.2-.9h0c-.2-.3-.5-.4-.8-.5h0c.6.9.4,1.9-.2,2.5-.6.6-1.6.6-2.3.1,0,0-.2-.1-.3-.2,0,0-.2-.2-.2-.3s-.1-.2-.2-.3v-1.1c0-.2.1-.4.3-.6h0c-.4.2-.7.5-1,.8s-.5.7-.6,1c-.2.4-.3.8-.4,1.3v.2h-.7v-.3ZM20.4,23.1v-.6c0-.3-.1-.5-.2-.8-.3-.8-.8-1.5-1.5-2.1-.2-.2-.5-.4-.8-.5h-.2c-.3.1-.6.2-.9.3h0c0,.2,0,.3.1.5.2.6.4,1.2.7,1.8.2.3.5.7.8,1s.5.4.8.6c.4.2.8.3,1.2.2.2,0,.4,0,.6-.2.3-.2.5-.4.6-.7,0-.2,0-.3.1-.5,0-.3,0-.6-.1-1-.3-.9-.8-1.6-1.5-2.2-.3-.2-.7-.4-1-.6h-.1c-.2.1-.3.2-.5.3h0c.4.3.7.6,1,1,.4.5.7,1.1.9,1.8,0,.3.1.6.1,1v.4h0v.3h-.1ZM12.8,14.7h.4c.3,0,.6-.3.7-.6h0c0-.1,0-.2-.1-.2h-.2c-.4,0-.7.2-1,.4,0,0-.1,0-.2.1-.1.1,0,.3.1.3h.3ZM16.8,14.1h0c0-.2-.2-.3-.4-.4h-.1c0,.3.2.4.3.6h.2v-.2Z"/>
                <path class="cls-4" d="M23.4,0c-.1.7-.3,1.4-.4,2.1,0,.3-.2.5-.3.8,0,.2-.1.3-.3.4h0c-.4-.7-.8-1.4-1.2-2.1-.2-.4-.4-.7-.6-1.1h0c0-.1,3-.1,3-.1h-.2Z"/>
                <path class="cls-1" d="M24.1,11.1c-.2.1-.3.2-.5.3-.2,0-.5.2-.7.2s-.4,0-.5.1h-.4c-.2,0-.4,0-.6-.1,0,0-.2-.1-.2-.2v-.4c0-.1.1-.2.2-.3h.1c.2-.3.3-.4.5-.6.2-.1.3-.2.5-.4.2-.1.4-.3.6-.4.2,0,.3-.1.5-.2h.5s0,2,0,2Z"/>
                <path class="cls-1" d="M0,0h0v3.6h0V0h0Z"/>
                <path class="cls-4" d="M0,12.9h0v2.4h0v-2.4h0Z"/>
                <path class="cls-7" d="M.9,24h3.3H.9Z"/>
                <path class="cls-7" d="M16.7,24h-2.7,2.7Z"/>
                <path class="cls-7" d="M19.1,24h2-2.2.2Z"/>
                <path class="cls-7" d="M0,9.7h0v.8h0v-.8h0Z"/>
                <path class="cls-7" d="M0,3.7h0v.5h-.2v-.6h.2Z"/>
                <path class="cls-7" d="M0,23.8h0v-.6h0v.6c0,.2,0,0,0,0Z"/>
                <path class="cls-10" d="M0,10.5v-.8c.2-.4.5-.8.9-1.1.5-.5,1.1-.8,1.7-1,.4-.2.8-.3,1.3-.3.8,0,1.6,0,2.3.3.8.3,1.5.8,2,1.5.4.5.7,1.1.9,1.7h0c-.1-.2-.2-.4-.3-.5-.3-.4-.6-.8-1-1.2-.9-.8-1.9-1.2-3.1-1.2s-.8,0-1.1,0c-.8.2-1.5.5-2.1.9s-.6.5-.9.8c0,0,0,.2-.2.3h0c0,.5.3.8.6,1.2h0v-.9c.2-.5.6-.9,1-1.2.6-.3,1.2-.4,1.9-.3.5.1.9.3,1.2.7s.6.8.6,1.3,0,1-.3,1.4c-.2.3-.5.6-.9.8h0c.6,0,1.2,0,1.8-.3.6-.2,1.2-.5,1.7-.9.4-.3.7-.6,1-.9h0c-.7,1-1.6,1.8-2.7,2.2-.4.2-.8.2-1.2.3h-1.1c-1.3-.1-2.4-.7-3.3-1.7C.4,11.2.1,10.8,0,10.4h0Z"/>
                <path class="cls-9" d="M.9,11.1h0c-.3-.3-.5-.7-.6-1.1h0c0-.1,0-.3.2-.4.3-.3.5-.6.9-.8.6-.4,1.3-.7,2.1-.9h1.1c1.2,0,2.2.4,3.1,1.2.4.4.7.8,1,1.2.1.2.2.3.3.5h0c-.3.3-.7.6-1,.9-.5.4-1.1.7-1.7.9s-1.2.3-1.8.3h0c.4-.2.6-.4.9-.8.3-.4.4-.9.3-1.4,0-.5-.3-.9-.6-1.3-.3-.3-.7-.6-1.2-.7-.7-.2-1.3,0-1.9.3-.5.3-.8.7-1,1.2-.1.3-.1.6-.1.9h0Z"/>
                <path class="cls-1" d="M0,15.3v-2.4h.1c.2,0,.4.2.6.2s.2,0,.3.1c.2,0,.4.2.6.3.2,0,.4.2.6.3,0,0,.2.2.3.3v.6c-.2.2-.4.4-.7.5H0Z"/>
                <path class="cls-10" d="M0,23.8h0v-.6h0c.7.2,1.4.4,2.1.5.4,0,.9.2,1.4.2h.5H.5c-.2,0-.3,0-.5-.1h0Z"/>
                <path class="cls-7" d="M9.1,10.9h0Z"/>
                <path class="cls-9" d="M16.1,9.6v-.2c.1-.4.2-.9.4-1.3.2-.4.4-.7.6-1,.3-.3.6-.6,1-.8h0c-.1.2-.2.4-.3.6v1.1c0,.1,0,.2.2.3s.1.2.2.3.2.2.3.2c.7.5,1.7.4,2.3-.1.6-.5.9-1.6.2-2.5h0c.3,0,.5.3.8.4h0c0,.4,0,.7-.2,1-.4,1-1,1.7-2,2.2s-.7.3-1.1.3-.9,0-1.4-.1c-.4-.1-.8-.3-1.2-.5h.2Z"/>
                <path class="cls-7" d="M16.2,9.6h0Z"/>
                <path class="cls-1" d="M20.3,17.1h0Z"/>
                <path class="cls-1" d="M20.4,23.2v-.4c0-.3,0-.6-.1-1-.2-.6-.5-1.2-.9-1.8-.3-.4-.6-.7-1-1h0c.2,0,.3-.2.5-.3h.1c.4.1.7.3,1,.6.7.6,1.2,1.3,1.5,2.2,0,.3.1.6.1,1s0,.3-.1.5c-.1.3-.3.5-.6.7-.2.1-.4.2-.6.2-.4,0-.8,0-1.2-.2-.3-.1-.5-.3-.8-.6-.3-.3-.5-.6-.8-1-.3-.6-.6-1.2-.7-1.8,0-.2,0-.3-.1-.5h0c.3,0,.6-.2.9-.3h.2c.3.1.5.3.8.5.7.6,1.2,1.2,1.5,2.1.1.2.2.5.2.8v.6h0v-.3h.1Z"/>
                <path class="cls-9" d="M12.8,14.7h-.2c-.2,0-.2-.2-.1-.3h.2c.3-.3.6-.5,1-.5h.2s.1,0,.1.1h0c-.2.4-.4.6-.7.7h-.5Z"/>
                <path class="cls-9" d="M16.8,14.1h0c0,0,0,.1-.1.1h-.1c-.2-.1-.3-.3-.3-.5h0c0,0,0,0,.1-.1.2,0,.4.2.4.4h0Z"/>
                <path class="cls-7" d="M20.4,23.2h0Z"/>
                <path class="cls-9" d="M.9,11.1h0Z"/>
              </g>
            </g>
          </g>
        </g>
        <g id="Layer_2">
          <g>
            <path class="cls-5" d="M0,12.9v-2.4h0v.2c.2.5.5.9.9,1.3.9.9,2,1.3,3.2,1.4h1.2c.6-.1,1.2-.3,1.7-.7.6-.4,1.1-.8,1.5-1.4.1-.1.2-.3.3-.4h0c0-.2-.2-.4-.3-.6-.3-.6-.6-1.1-1.1-1.5-.9-.8-1.9-1.3-3.1-1.3s-.9,0-1.3,0c-.9.2-1.6.6-2.3,1.1C.3,9,0,9.4-.3,9.9H-.3v-5.4h1.5c.4,0,.8,0,1.1.2.7.2,1.3.5,2,.8.8.4,1.5,1,2.2,1.5.8.7,1.5,1.4,2.2,2.2.9,1,1.7,2.1,2.5,3.3.3.4.5.8.8,1.2h0c-.1,0-.2.2-.3.3-.1.2-.2.4-.2.7s0,.4.1.6c.1.2.3.4.5.6.5.4,1.1.6,1.7.7h.6c0,.3.1.6.2.9,0,.4.2.8.2,1.2s0,.4.1.6h-4.7.1c.7.3,1.4.5,2.2.6h2.4c.3,0,.7,0,1-.2h0c0,.5.2,1,.4,1.5.3.7.6,1.3,1.1,1.8h0c-.5.2-1,.3-1.4.4-.6.2-1.3.3-1.9.4H3.8c-.3,0-.7-.1-1-.2-.5,0-.9-.2-1.4-.3-.5.1-1,0-1.4,0v-7.9h1.4c.2,0,.5-.1.7-.2.2-.1.4-.3.5-.4v-.4c0-.1-.2-.2-.3-.3-.2-.1-.4-.3-.6-.4-.1,0-.3-.1-.4-.2-.1,0-.3-.1-.4-.2-.1,0-.3-.1-.4-.2-.2,0-.3-.1-.5-.1ZM10.4,19.2h0Z"/>
            <path class="cls-7" d="M0,3.7V0h19.7c.2.5.4.9.7,1.2.2.4.5.8.7,1.2h0c-.3-.2-.6-.4-1-.5-.5-.2-1-.2-1.5-.2s-.6,0-.9.2c-.8.2-1.5.7-2,1.4-.3.4-.5.9-.7,1.4-.2.6-.3,1.2-.3,1.8v4.2c0,.3,0,.6.1.8,0,.3.1.6.2.9v.3h-1.1c-.3,0-.6.1-1,.2-.2,0-.3.1-.5.2h0c-.2-.3-.3-.6-.5-.9-.6-1-1.3-1.9-2-2.8-.6-.7-1.2-1.4-1.8-2.1-.5-.5-.9-.9-1.5-1.3-.7-.6-1.4-1.1-2.2-1.5-.7-.4-1.4-.7-2.1-.9-.4,0-.7-.2-1.1-.2H-.4l.4.3Z"/>
            <path class="cls-5" d="M24,11.1v8.7h0c-.6.4-1.2.8-1.8,1.2h0c-.2-.7-.5-1.2-1-1.7-.4-.5-1-.9-1.6-1.2h0c.2-.1.3-.3.4-.5.1-.1.2-.3.3-.4h0c-.2.2-.4.4-.6.5-.2.2-.3.2-.5.3h0c-.4.2-.7.4-1.1.5h0c-.6.2-1.2.4-1.8.5h-.2v-.4c-.1-.8-.3-1.5-.4-2.3h0c.1,0,.2-.1.3-.2.5-.3.8-.6,1.1-1.1.2-.3.3-.5.3-.9v-.6c0-.3-.3-.5-.5-.6-.2,0-.3-.1-.5-.2h0v-.5c0-.5-.2-.9-.2-1.4s-.1-.8-.2-1.2v-3.7c0-.4,0-.7.2-1,.1-.4.3-.8.5-1.1.3-.5.7-.9,1.3-1.2.6-.3,1.2-.4,1.9-.3.5,0,.9.2,1.3.5.3.2.5.4.7.6.3.3.6.7.8,1.1.3.5.6,1.1.8,1.7h0c-.2,0-.4,0-.6,0h0c-.2-.2-.4-.4-.6-.5-.5-.3-1.1-.5-1.7-.5h-1.1c-.7.2-1.3.5-1.8,1s-.8,1.2-.9,1.8c0,.3,0,.6-.1.9v.2h0c.4.3.8.6,1.3.8s1.1.3,1.7.2c.4,0,.8-.2,1.2-.4.8-.4,1.4-1,1.8-1.9.2-.5.4-1.1.3-1.7h0c.2,0,.3,0,.5-.2q.1,0,0,0c-.2,0,0,0,0,0,.1.3.2.6.4,1,0,.3.2.5.4.8,0,0,.1.2.2.2h0v.7h-.4c-.3,0-.6.2-.8.3-.2.1-.4.2-.6.4-.3.2-.5.4-.8.6-.1.1-.3.3-.4.4v.4h.1c.2.2.5.3.7.3h.5c.2,0,.4,0,.6-.2.1,0,.3,0,.4-.1.2,0,.3-.1.5-.2,0,0,.1,0,.2-.1l-.5.6Z"/>
            <path class="cls-2" d="M16.1,9.6h0v-.2c0-.3,0-.6.1-.9.1-.7.4-1.3.9-1.8s1.1-.9,1.8-1c.4,0,.7,0,1.1,0,.6,0,1.2.2,1.7.5.2,0,.4.3.6.5h0c.2,0,.4,0,.6,0h0c-.2-.6-.5-1.2-.8-1.7-.2-.4-.5-.8-.8-1.1-.2-.2-.5-.5-.7-.6-.4-.2-.8-.4-1.3-.5-.7,0-1.3,0-1.9.3-.6.2-1,.6-1.3,1.2-.2.4-.4.7-.5,1.1,0,.3-.2.7-.2,1v3.7c0,.4,0,.8.2,1.2,0,.5.1.9.2,1.4v.5h0c.2,0,.3,0,.5.2.2.1.4.3.5.6v.6c0,.3-.2.6-.3.9-.3.4-.6.8-1.1,1.1-.1,0-.2.1-.3.2h0c.1.8.3,1.5.4,2.3v.4h.2c.6-.1,1.2-.3,1.8-.5h0c.4-.2.8-.3,1.1-.5h0c.2,0,.3-.2.5-.3.2-.2.4-.3.6-.5h0c0,.2-.2.3-.3.4-.1.2-.3.3-.4.5h0c.6.3,1.2.7,1.6,1.2s.8,1.1,1,1.7h0c.6-.4,1.2-.8,1.8-1.2h0v.7h0c-.4.3-.7.5-1.1.7-.2.1-.4.2-.5.3h0v1c-.1.6-.5,1.1-1,1.3h-2.2c-.3-.1-.5-.3-.7-.4h0c-.4.1-.8.3-1.2.4h-2.9.3c.6-.1,1.3-.3,1.9-.4.5-.1,1-.3,1.4-.4h0c-.5-.5-.8-1.1-1.1-1.8-.2-.5-.3-1-.4-1.5h0c-.3,0-.7.1-1,.2h-2.4c-.8-.1-1.5-.3-2.2-.6h-.1,4.7c0-.2,0-.4-.1-.6,0-.4-.2-.8-.2-1.2s-.1-.6-.2-.9h-.6c-.6,0-1.2-.3-1.7-.7-.2-.2-.4-.4-.5-.6,0-.2-.1-.4-.1-.6s0-.5.2-.7c0-.1.2-.2.3-.3h0c-.2-.4-.5-.8-.8-1.2-.8-1.2-1.6-2.3-2.5-3.3-.7-.8-1.4-1.5-2.2-2.2-.7-.6-1.4-1.1-2.2-1.5-.6-.3-1.3-.6-2-.8-.4,0-.8-.2-1.1-.2H-.3c.3-.8.3-1,.3-1.2h1.6c.4,0,.7,0,1.1.2.7.2,1.4.5,2.1.9.8.4,1.5.9,2.2,1.5.5.4,1,.9,1.5,1.3.6.6,1.3,1.3,1.8,2.1.7.9,1.4,1.8,2,2.8.2.3.4.6.5.9h0c.2,0,.3-.1.5-.2.3,0,.6-.2,1-.2h1.1v-.3c0-.3-.1-.6-.2-.9,0-.3,0-.6-.1-.8v-4.2c0-.6.1-1.2.3-1.8.1-.5.4-1,.7-1.4.5-.7,1.1-1.1,2-1.4.3,0,.6,0,.9-.2.5,0,1,0,1.5.2.3,0,.7.3,1,.5h0c-.2-.4-.5-.8-.7-1.2-.2-.4-.5-.8-.7-1.1h0c0,0,.7,0,.7,0h0c.2.3.4.7.6,1,.4.7.9,1.5,1.3,2.3h0c.1,0,.2-.3.3-.5.1-.3.2-.6.3-.9.1-.4.2-.8.3-1.1,0-.3.1-.5.2-.8h.6c0,.3-.1.5-.2.8,0,.5-.2,1-.3,1.4,0,.3-.2.7-.3,1-.1.3-.3.5-.5.7h0c0,0,.1.3.2.4,0,.2.2.4.3.6.2.4.4.8.5,1.2h.1-.1c0,.2.2.5.3.7,0,0,0,.2.1.3v1.2h0s-.1-.2-.2-.2c-.2-.2-.3-.5-.4-.8s-.2-.6-.4-1h0s0,0,0,0c-.2,0-.3,0-.5.2h0c0,.6,0,1.1-.3,1.7-.4.8-1,1.4-1.8,1.9-.4.2-.8.3-1.2.4-.6,0-1.2,0-1.7-.2s-.9-.5-1.3-.8h0c.4.2.8.4,1.2.5.5.1,1,.2,1.6.1.4,0,.8-.2,1.2-.4.9-.5,1.5-1.2,1.9-2.2.1-.3.2-.6.2-1h0c-.2-.2-.5-.4-.8-.5h0c.4.6.5,1.3.1,2s-1.2,1.1-2.1.9c-.8-.2-1.3-.9-1.4-1.6,0-.4,0-.8.3-1.1h0c-.2,0-.4.2-.6.4-.4.4-.7.8-1,1.3-.2.4-.3.8-.4,1.2v.4l-.8-.2ZM20.4,23.2h0v-.7c0-.3-.1-.5-.2-.7-.3-.8-.8-1.4-1.4-2-.3-.2-.6-.4-.9-.6h0c-.3.1-.6.2-.9.3h0c.1.6.3,1.2.6,1.8.2.5.5.9.9,1.3s.6.5.9.7c.3.1.5.2.8.2s.7,0,1-.2c.3-.1.6-.4.7-.7,0-.2.1-.4.1-.6,0-.3,0-.6-.1-.9-.3-.8-.7-1.5-1.4-2.1-.3-.3-.7-.5-1.1-.6h0c-.2.1-.3.2-.5.3h.1c.5.4.8.8,1.1,1.3.3.5.6,1.1.7,1.7,0,.3.1.6,0,.9v.3l-.4.3ZM12.7,14.7h.2c.4,0,.7-.3.9-.6v-.2s0-.1-.1-.1h-.2c-.2,0-.3,0-.5.1-.2,0-.4.2-.6.3,0,0-.1,0-.1.1v.3h.4ZM16.7,14.1c0-.3-.2-.5-.5-.5s-.2,0-.1.2c0,.2.2.4.4.5h.1c0-.1.1-.2.1-.2Z"/>
            <path class="cls-2" d="M0,9.7h0c.2-.5.6-.8,1-1.2.7-.6,1.5-.9,2.3-1.1.4,0,.9-.2,1.3,0,1.2,0,2.2.5,3.1,1.3.5.4.8,1,1.1,1.5,0,.2.2.4.3.6h0c0-.2-.2-.3-.3-.5-.3-.5-.6-.9-1.1-1.2-.4-.4-.9-.7-1.4-.9-.7-.3-1.5-.4-2.3-.3-.3,0-.7,0-1,.2-.7.2-1.4.5-2,1-.3.2-.6.5-.8.9H.2c0,.5.4.9.6,1.2h0v-.7c.1-.6.5-1,.9-1.3.6-.4,1.3-.5,2-.4.5.1,1,.4,1.3.8.4.5.5,1,.5,1.6s-.2.7-.4,1.1c-.2.3-.5.5-.8.7h.6c.3,0,.6,0,.9-.1.7-.2,1.3-.5,1.9-.8.4-.3.8-.6,1.2-1h0c0,.1-.2.3-.3.4-.4.5-.9,1-1.5,1.4-.5.3-1.1.6-1.7.7-.4,0-.8.1-1.2,0-1.2,0-2.3-.6-3.2-1.4-.4-.4-.7-.8-.9-1.3v-.2H0v-.8h0Z"/>
            <path class="cls-5" d="M23.4,0c0,.3,0,.5-.2.8,0,.4-.2.8-.3,1.1,0,.3-.2.6-.3.9,0,.2-.2.3-.3.5h0c-.4-.8-.8-1.5-1.3-2.3C20.8.7,20.6.3,20.4,0h0s3,0,3,0Z"/>
            <path class="cls-3" d="M24,11.1s-.1,0-.2.1c-.1,0-.3.1-.5.2-.1,0-.3,0-.4.1-.2,0-.4.1-.6.2h-.5c-.3,0-.5,0-.7-.2h-.1v-.5c.1-.2.2-.3.4-.4.2-.2.5-.4.8-.6.2-.1.4-.3.6-.4.3-.2.5-.3.8-.3h.4s0,1.8,0,1.8Z"/>
            <path class="cls-3" d="M0,12.9c.2,0,.3.1.5.2.1,0,.3.1.4.2.1,0,.3.1.4.2.1,0,.3.1.4.2.2,0,.4.2.6.4,0,0,.2.2.3.3v.4c0,.2-.3.3-.5.4-.2.1-.4.2-.7.2H0v-2.4h0Z"/>
            <path class="cls-2" d="M0,23.2c.4.1.9.2,1.3.3.5.1.9.2,1.4.3.3,0,.7.1,1,.2h.3H.8c-.2,0-.5-.1-.7-.2v-.6h0Z"/>
            <path class="cls-8" d="M18.2,23.5h0c.2.2.5.3.7.4h-2.3.3"/>
            <path class="cls-8" d="M9.1,10.9h0c-.4.3-.8.7-1.2,1-.6.4-1.2.7-1.9.8-.3,0-.6.1-.9.1h-.6c.3-.2.6-.4.8-.7.2-.3.4-.7.4-1.1,0-.6,0-1.1-.5-1.6-.3-.4-.8-.7-1.3-.8-.7-.2-1.4,0-2,.4-.5.3-.8.8-.9,1.3v.7h0c-.3-.3-.5-.7-.6-1.1H.4c.2-.4.5-.7.8-1,.6-.5,1.3-.8,2-1,.3,0,.7-.2,1-.2.8,0,1.5,0,2.3.3.5.2,1,.5,1.4.9s.8.8,1.1,1.2c.1.2.2.3.3.5h0l-.2.3Z"/>
            <path class="cls-3" d="M9.1,10.8h0Z"/>
            <path class="cls-3" d="M9.1,10.8h0Z"/>
            <path class="cls-3" d="M9.1,10.8h0Z"/>
            <polygon class="cls-2" points="10.4 19.2 10.4 19.2 10.4 19.2 10.4 19.2 10.4 19.2"/>
            <path class="cls-3" d="M9.1,10.8h0Z"/>
            <path class="cls-3" d="M9.1,10.9h0Z"/>
            <path class="cls-8" d="M16.1,9.6v-.4c.1-.4.2-.8.4-1.2.2-.5.6-.9,1-1.3.2-.2.4-.3.6-.4h0c-.2.3-.3.7-.3,1.1,0,.8.6,1.5,1.4,1.6.8.2,1.7-.2,2.1-.9.3-.6.3-1.4-.1-2h0c.3,0,.6.3.8.5h0c0,.3,0,.6-.2,1-.4,1-1,1.7-1.9,2.2-.4.2-.8.3-1.2.4-.5,0-1,0-1.6-.1-.4-.1-.8-.3-1.2-.5h.2Z"/>
            <path class="cls-2" d="M16.1,9.6h0Z"/>
            <polygon class="cls-2" points="20.3 17 20.3 17 20.3 17 20.3 17 20.3 17"/>
            <path class="cls-3" d="M20.4,23.2v-1.2c-.1-.6-.4-1.2-.7-1.7-.3-.5-.7-.9-1.1-1.3h-.1c.2-.1.4-.2.5-.3h0c.4.1.8.3,1.1.6.7.6,1.2,1.3,1.4,2.1,0,.3.1.6.1.9s0,.4-.1.6c-.1.3-.4.6-.7.7-.3.1-.6.2-1,.2s-.6-.1-.8-.2c-.3-.2-.6-.4-.9-.7-.4-.4-.6-.8-.9-1.3-.3-.6-.5-1.2-.6-1.8h0c.3,0,.6-.2.9-.3h0c.3.2.6.4.9.6.6.5,1.1,1.2,1.4,2,0,.2.2.5.2.7v.7h0l.4-.3Z"/>
            <path class="cls-8" d="M12.7,14.7h-.2c-.1,0-.2-.2,0-.3,0,0,0-.1.1-.1.2-.1.4-.2.6-.3.2,0,.3-.1.5-.1h.2s.1,0,.1.1v.2c-.2.3-.5.5-.9.6h-.4Z"/>
            <path class="cls-8" d="M16.7,14.1h0q0,.1-.1.1h0c-.2-.1-.3-.3-.4-.5,0-.1,0-.2.1-.2.3,0,.5.2.5.5h-.1Z"/>
            <path class="cls-7" d="M21.2,2.5h0Z"/>
            <polygon class="cls-8" points="21.3 6.2 21.3 6.2 21.3 6.2 21.3 6.2 21.3 6.2"/>
          </g>
        </g>
      </g>
    </g>
    <g id="Layer_2-2" data-name="Layer_2" class="cls-6">
      <image width="4096" height="4096" transform="scale(0)" xlink:href="../../../../../Pictures/Finaux/Derp.png"/>
    </g>
  </g>
</svg>