<?xml version="1.0" encoding="UTF-8"?><svg id="uuid-dd95ea79-bf04-4536-a998-68fc71c883e7" xmlns="http://www.w3.org/2000/svg" xmlns:xlink="http://www.w3.org/1999/xlink" viewBox="0 0 81.78 81.77"><defs><clipPath id="uuid-77345eeb-bc8a-47d3-a666-82e522f47a9a"><path d="M11.96,11.96c-15.94,15.94-15.94,41.8,0,57.74L69.7,11.96c-15.94-15.94-41.8-15.94-57.74,0Z" style="fill:none;"/></clipPath><clipPath id="uuid-dbfd06d1-6ffb-44a7-8ad2-cbcc41fb3ddb"><path d="M69.82,69.81c15.94-15.94,15.94-41.8,0-57.74L12.08,69.81c15.94,15.94,41.8,15.94,57.74,0Z" style="fill:none;"/></clipPath></defs><g id="uuid-5dc66190-0666-4948-aa73-1588c913a34e"><g style="clip-path:url(#uuid-77345eeb-bc8a-47d3-a666-82e522f47a9a);"><path d="M41.61,80.63h-2c-.2,0-.4-.02-.6-.03-2.07-.08-4.11-.33-6.15-.71-.22-.04-.27-.12-.27-.33,0-10.21,0-20.43,0-30.64q0-.33-.33-.33c-10.23,0-20.46,0-30.69,0-.2,0-.25-.07-.29-.25-.13-.72-.25-1.44-.36-2.16-.22-1.53-.33-3.07-.39-4.61,0-.67,0-1.34,0-2,0-.19.02-.39.03-.58.08-2.07.32-4.13.71-6.17.04-.2.1-.27.31-.27,10.24,0,20.48,0,30.73.01.22,0,.27-.05.27-.27,0-10.24,0-20.48,0-30.73,0-.2.05-.27.25-.31.71-.12,1.41-.25,2.12-.35,1.54-.22,3.09-.34,4.65-.39.67,0,1.34,0,2,0,.2,0,.4.02.6.03,2.07.08,4.11.33,6.15.71.22.04.27.12.27.33,0,10.21,0,20.43,0,30.64q0,.33.33.33c10.23,0,20.46,0,30.69,0,.18,0,.25.04.28.23.13.73.26,1.45.36,2.18.22,1.53.33,3.07.39,4.61v2c0,.2-.02.4-.03.6-.08,2.07-.32,4.11-.71,6.15-.04.22-.12.27-.33.27-10.24,0-20.47,0-30.71-.01-.22,0-.27.06-.27.27,0,10.24,0,20.49,0,30.73,0,.21-.06.27-.25.3-.71.12-1.41.25-2.12.35-1.54.21-3.09.35-4.64.39Z" style="fill:#cf142c;"/><path d="M27.25,24.93c-1.07-.54-2.12-1.06-3.16-1.58-3.7-1.85-7.4-3.7-11.1-5.55-1.24-.62-2.47-1.24-3.71-1.85-.16-.08-.18-.12-.06-.27,1.98-2.49,4.23-4.72,6.73-6.68,3.36-2.63,7.06-4.67,11.07-6.12.07-.03.14-.07.23-.06v22.11Z" style="fill:#01237c;"/><path d="M13.79,27.2c-.05.04-.11.02-.16.02-3.52,0-7.05,0-10.57,0-.24,0-.24,0-.16-.22.52-1.43,1.12-2.83,1.78-4.2.08-.16.15-.12.26-.06,2.47,1.24,4.94,2.47,7.42,3.71.42.21.85.42,1.27.63.06.03.13.04.17.11Z" style="fill:#cf142c;"/><path d="M53.97,78.35v-22.13c.47.23.92.46,1.37.68,3.4,1.7,6.81,3.4,10.21,5.1,2.14,1.07,4.28,2.14,6.43,3.21.14.07.13.11.04.22-3.09,3.87-6.75,7.08-11.01,9.61-2.17,1.29-4.45,2.36-6.83,3.22-.06.02-.13.04-.22.07Z" style="fill:#01237c;"/><path d="M67.42,53.93c.37,0,.74,0,1.1,0,3.21,0,6.42,0,9.63,0,.24,0,.24,0,.16.22-.52,1.42-1.1,2.8-1.77,4.16-.07.15-.13.17-.28.1-1.38-.7-2.77-1.39-4.15-2.08-1.51-.75-3.02-1.51-4.53-2.26-.06-.03-.12-.06-.18-.1,0-.01,0-.02.01-.04Z" style="fill:#cf142c;"/><path d="M27.25,56.22v22.13c-.43-.16-.84-.31-1.25-.47-4.44-1.73-8.45-4.15-12.03-7.28-1.79-1.56-3.43-3.27-4.91-5.11-.16-.2-.16-.2.06-.31,3.92-1.94,7.84-3.88,11.76-5.82,2.08-1.03,4.17-2.06,6.25-3.09.03-.02.06-.03.12-.05Z" style="fill:#01237c;"/><path d="M25.76,53.97c-.57.29-1.14.57-1.71.86-5.05,2.53-10.11,5.05-15.16,7.58-.41.21-.82.41-1.23.62-.12.06-.19.07-.28-.06-.93-1.39-1.78-2.83-2.54-4.33-.08-.15,0-.18.1-.22.85-.42,1.69-.85,2.54-1.27,2.08-1.04,4.15-2.08,6.23-3.12.14-.07.28-.11.44-.11,3.78,0,7.56,0,11.34,0,.09,0,.18,0,.27,0,0,.02,0,.03.01.05Z" style="fill:#cf142c;"/><path d="M53.96,24.93v-.4c0-7.16,0-14.32,0-21.48q0-.25.24-.16c4.79,1.74,9.09,4.29,12.92,7.66,1.78,1.57,3.41,3.29,4.89,5.15.11.13.1.18-.05.26-3.89,1.94-7.79,3.89-11.68,5.84-2.06,1.03-4.12,2.06-6.19,3.09-.03.01-.06.03-.12.06Z" style="fill:#01237c;"/><path d="M55.46,27.17c.9-.45,1.8-.9,2.7-1.35,4.98-2.49,9.97-4.98,14.95-7.48.11-.05.21-.1.32-.16.37-.19.27-.2.49.13.88,1.31,1.68,2.67,2.39,4.08.14.27.14.26-.13.4-2.16,1.08-4.31,2.16-6.47,3.23-.75.37-1.49.75-2.24,1.12-.11.05-.21.08-.34.08-3.82,0-7.63,0-11.45,0-.07,0-.15,0-.22,0,0-.02,0-.03,0-.05Z" style="fill:#cf142c;"/><path d="M32.8,1.32c-1.92.38-3.8.9-5.61,1.55.02,0,.05-.01.07,0v22.09c-1.07-.54-2.11-1.06-3.16-1.58-3.7-1.85-7.39-3.7-11.09-5.54-1.23-.62-2.47-1.24-3.7-1.85-.13-.07-.15-.12-.09-.21-1.72,2.17-3.22,4.52-4.46,7.02.06-.08.13-.07.22-.03,2.47,1.24,4.94,2.47,7.41,3.71.42.21.84.42,1.27.63.06.03.13.04.17.11-.05.04-.11.02-.16.02-3.52,0-7.04,0-10.56,0-.16,0-.2,0-.2-.07-.65,1.82-1.17,3.69-1.55,5.62.04-.15.1-.22.29-.22,10.23,0,20.46,0,30.7.01.22,0,.27-.05.27-.27,0-10.23,0-20.46,0-30.7,0-.17.05-.25.2-.29Z" style="fill:#fefdfd;"/><path d="M48.41,79.83c1.9-.38,3.75-.89,5.55-1.52v-22.1c.47.23.92.46,1.37.68,3.4,1.7,6.8,3.4,10.2,5.1,2.14,1.07,4.28,2.14,6.42,3.21.1.05.11.09.08.15,1.71-2.17,3.21-4.52,4.45-7.01-.06.08-.11.11-.24.05-1.38-.7-2.77-1.39-4.15-2.08-1.51-.75-3.02-1.51-4.52-2.26-.06-.03-.12-.06-.18-.1,0-.01,0-.02.01-.04h1.1c3.21,0,6.41,0,9.62,0,.16,0,.21,0,.2.07.65-1.82,1.17-3.7,1.55-5.63-.05.17-.12.22-.31.22-10.23,0-20.45,0-30.68-.01-.22,0-.27.06-.27.27,0,10.23,0,20.47,0,30.7,0,.18-.06.24-.21.28Z" style="fill:#fefdfd;"/><path d="M32.6,79.52c0-10.2,0-20.41,0-30.61q0-.33-.33-.33c-10.22,0-20.44,0-30.65,0-.17,0-.23-.07-.27-.2.71,3.6,1.91,7.01,3.51,10.19-.03-.1.02-.14.1-.18.84-.42,1.69-.84,2.53-1.27,2.07-1.04,4.15-2.07,6.22-3.11.14-.07.28-.11.44-.11,3.78,0,7.56,0,11.33,0h.27s0,.03.01.05c-.57.29-1.14.57-1.71.86-5.05,2.52-10.1,5.05-15.14,7.57-.41.2-.82.41-1.23.62-.12.06-.19.06-.27-.05.55.82,1.14,1.6,1.75,2.37-.03-.06.01-.09.16-.16,3.88-1.94,7.75-3.88,11.63-5.82,2.06-1.03,4.12-2.06,6.18-3.09.03-.02.06-.03.12-.05v22.1c1.8.64,3.65,1.15,5.56,1.53-.16-.04-.22-.12-.22-.31Z" style="fill:#fefdfd;"/><path d="M76.35,22.58c.03.1-.02.13-.21.22-2.15,1.08-4.31,2.15-6.46,3.23-.75.37-1.49.74-2.23,1.12-.11.05-.21.08-.34.08-3.81,0-7.63,0-11.44,0h-.22s0-.03,0-.05c.9-.45,1.8-.9,2.7-1.35,4.98-2.49,9.96-4.98,14.94-7.47.11-.05.21-.1.32-.16.23-.11.28-.15.33-.1-.55-.8-1.13-1.58-1.73-2.34.04.08.04.13-.09.19-3.89,1.94-7.78,3.89-11.67,5.83-2.06,1.03-4.12,2.06-6.18,3.09-.03.01-.06.03-.12.06v-.4c0-7.15,0-14.31,0-21.46,0-.18,0-.22.09-.21-1.82-.65-3.71-1.17-5.64-1.55.16.04.22.12.22.31,0,10.2,0,20.41,0,30.61q0,.33.33.33c10.22,0,20.44,0,30.65,0,.16,0,.23.05.26.19-.71-3.59-1.9-7-3.5-10.17Z" style="fill:#fefdfd;"/></g><g style="clip-path:url(#uuid-dbfd06d1-6ffb-44a7-8ad2-cbcc41fb3ddb);"><path d="M21.24,6.09c-.96.22-1.6.98-2.38,1.48C2.62,18.07-3.68,39.58,4.18,57.23c3.47,7.8,9.13,13.6,15.91,18.5.53.38.94.18,1.41.19.36.82,1.18,1.02,1.88,1.34,1.26.58,2.58,1.02,3.87,1.52,4.08,1.58,8.32,2.18,12.63,2.34,4.19.16,8.31-.38,12.39-1.56,2.97-.86,5.66-2.23,8.42-3.53,24.35-13.5,27.55-48.04,6.07-65.72-1.95-1.6-3.87-3.28-6.34-4.11-1.17-1.1-2.66-1.61-4.09-2.22-2.73-1.16-5.56-2.28-8.46-2.57-4.95-.49-9.89-.65-14.91.43-4.16.89-7.99,2.31-11.7,4.24Z" style="fill:#fdfdfd;"/><path d="M60.68,76.03c-2.75,1.3-5.45,2.66-8.42,3.53-4.08,1.19-8.19,1.72-12.39,1.56-4.3-.16-8.55-.77-12.63-2.34-1.29-.5-2.61-.93-3.87-1.52-.7-.32-1.52-.52-1.87-1.34-.01-.34-.03-.68-.03-1.02,0-22.28,0-44.56,0-66.84,0-.66.19-1.36-.21-1.98,3.71-1.93,7.54-3.34,11.7-4.24,5.02-1.08,9.96-.92,14.91-.43,2.9.29,5.73,1.4,8.46,2.57,1.43.61,2.93,1.12,4.09,2.22.01.45.04.9.04,1.35,0,22.16,0,44.33,0,66.49,0,.66-.17,1.36.22,1.99ZM27.43,36.43c.32,1.09.63,2.16.95,3.22.21.7.3,1.34-.58,1.66-1.21.45-.55.88.01,1.34,1.63,1.32,3.22,2.67,4.87,3.96.88.68,1.5,1.34.9,2.55-.35.71-.04,1.02.79.89,1.45-.23,2.94-.28,4.37-.59,1.63-.35,1.99.3,1.87,1.77-.12,1.63-.51,3.24-.34,4.88.04.37-.11.86.5.88.64.02.5-.49.51-.85.03-1.81.07-3.61.04-5.42-.02-1.1.33-1.56,1.5-1.34,1.5.28,3.03.37,4.53.65.93.17,1.37.04.92-.95-.5-1.12,0-1.79.84-2.45,1.95-1.53,3.87-3.1,5.98-4.8-2-.59-1.89-1.79-1.31-3.21.31-.76.44-1.6.64-2.38-1.71-.76-4.41,2.68-5.05-1.65-1.13,1.24-2.07,2.29-3.02,3.33-.23.24-.48.54-.87.39-.4-.16-.3-.55-.32-.88-.03-.43.02-.81.14-1.26.49-1.83.78-3.72,1.17-5.75-.47.15-.71.17-.88.29-1.35.97-2.21.64-2.84-.89-.46-1.11-1.13-2.13-1.83-3.4-.56,1.02-.96,1.76-1.36,2.5q-1.34,2.51-3.94,1.63c-.12.56-.07,1.08.06,1.64.37,1.59.65,3.21.95,4.82.08.44.27.96-.21,1.23-.53.3-.8-.23-1.09-.54-.9-.97-1.79-1.94-3.04-3.31.18,2.86-1.3,2.33-2.71,2.01-.71-.16-1.45-.2-2.18.03Z" style="fill:#f3f3f3;"/><path d="M21.24,6.09c.4.62.21,1.32.21,1.98.01,22.28,0,44.56,0,66.84,0,.34.02.68.03,1.02-.48-.01-.89.19-1.41-.19-6.78-4.9-12.43-10.7-15.91-18.5C-3.68,39.58,2.62,18.07,18.87,7.57c.78-.5,1.42-1.26,2.38-1.48Z" style="fill:#ea2229;"/><path d="M60.68,76.03c-.4-.63-.22-1.32-.22-1.99,0-22.16,0-44.33,0-66.49,0-.45-.03-.9-.04-1.35,2.46.83,4.39,2.51,6.34,4.11,21.48,17.68,18.28,52.23-6.07,65.72Z" style="fill:#ea2229;"/><path d="M27.43,36.43c.74-.23,1.47-.19,2.18-.03,1.41.32,2.88.85,2.71-2.01,1.25,1.36,2.14,2.34,3.04,3.31.29.32.56.84,1.09.54.49-.27.3-.79.21-1.23-.31-1.61-.58-3.23-.95-4.82-.13-.56-.19-1.09-.06-1.64q2.6.88,3.94-1.63c.4-.74.8-1.48,1.36-2.5.69,1.27,1.37,2.29,1.83,3.4.63,1.53,1.49,1.86,2.84.89.17-.12.41-.14.88-.29-.39,2.03-.68,3.92-1.17,5.75-.12.45-.17.83-.14,1.26.02.33-.07.72.32.88.38.15.64-.15.87-.39.95-1.03,1.89-2.08,3.02-3.33.64,4.33,3.34.89,5.05,1.65-.2.78-.33,1.62-.64,2.38-.58,1.42-.69,2.62,1.31,3.21-2.11,1.7-4.03,3.27-5.98,4.8-.84.66-1.34,1.33-.84,2.45.45.99,0,1.13-.92.95-1.5-.28-3.03-.37-4.53-.65-1.18-.22-1.52.24-1.5,1.34.03,1.81,0,3.61-.04,5.42,0,.36.13.87-.51.85-.61-.02-.46-.51-.5-.88-.17-1.65.21-3.26.34-4.88.11-1.47-.24-2.12-1.87-1.77-1.43.31-2.92.36-4.37.59-.83.13-1.13-.17-.79-.89.59-1.21-.03-1.87-.9-2.55-1.65-1.29-3.25-2.64-4.87-3.96-.56-.45-1.22-.89-.01-1.34.88-.32.79-.96.58-1.66-.32-1.07-.63-2.14-.95-3.22Z" style="fill:#ea2229;"/></g><line x1="12.52" y1="69.31" x2="69.3" y2="12.6" style="fill:none; stroke:#000; stroke-miterlimit:10; stroke-width:.75px;"/></g></svg>